<svg width="162" height="50" viewBox="0 0 162 50" fill="none" xmlns="http://www.w3.org/2000/svg">
<path d="M31.8654 15.9707C31.8817 15.5788 31.9143 15.1706 31.9306 14.7787C31.9469 13.5866 32.811 12.7211 33.8871 12.5088C34.1642 12.4598 34.4577 12.4435 34.7838 12.3945C34.6044 11.9699 34.4414 11.5453 34.262 11.1207C33.9849 10.4512 33.6914 9.798 33.4305 9.12847C33.349 8.91618 33.2349 8.76921 32.974 8.8182C32.7621 8.85086 32.5339 8.83453 32.3219 8.8182C31.2785 8.78554 30.5937 9.43874 29.9579 10.1083C29.6644 10.4185 29.7948 10.6798 30.1861 10.8431C30.3166 10.8921 30.4796 11.0717 30.4796 11.1861C30.4796 11.333 30.3818 11.5616 30.2513 11.6433C29.6481 12.0352 28.9471 11.7413 28.7188 11.0717C28.6047 10.7125 28.7514 10.4675 28.9634 10.2226C29.4688 9.61838 30.1861 9.34076 30.8872 9.03049C30.9524 8.99783 31.0176 8.93251 31.0828 8.89985C31.0665 8.86719 31.0502 8.83453 31.0502 8.80187C30.1209 8.80187 29.1916 8.76921 28.2786 8.8182C27.6428 8.85086 27.1211 8.4916 27.2189 7.74042C27.2352 7.65877 27.2352 7.56079 27.2189 7.47914C27.1374 6.89126 27.5613 6.532 28.1971 6.51567C28.5069 6.49934 28.8166 6.51567 29.1101 6.51567C29.4036 6.51567 29.697 6.51567 30.0231 6.51567C29.9905 6.43402 29.9905 6.35237 29.9416 6.30338C29.1916 5.5522 29.0286 4.58873 28.9797 3.57627C28.9308 2.58014 29.0449 1.61667 29.534 0.73485C29.6807 0.45724 29.9253 0.24495 30.1372 0C30.284 0 30.447 0 30.5937 0C31.8328 1.17576 31.8165 2.67812 31.6861 4.21314C31.6698 4.37644 31.7187 4.60506 31.8165 4.7357C32.2241 5.2256 32.648 5.68284 33.0719 6.15641C33.2512 6.35237 33.4469 6.49934 33.7403 6.532C34.1805 6.58099 34.5066 6.8586 34.474 7.25052C34.3762 8.18133 34.8327 8.91618 35.1424 9.71636C35.4685 10.5329 35.8435 11.3167 36.1696 12.1332C36.2511 12.3455 36.3815 12.4108 36.5935 12.4108C37.5228 12.3945 38.4521 12.4108 39.3814 12.4108C40.8976 12.4108 41.9084 13.4069 41.9084 14.9256C41.9084 15.2686 41.941 15.5952 41.9736 15.9381C41.9736 16.134 41.9573 16.3463 41.9736 16.5423C42.0389 17.7997 41.5987 18.7469 40.3596 19.2857C40.9954 20.8534 41.6313 22.4211 42.2834 23.9888C42.7399 23.7928 43.1638 23.5969 43.5877 23.4336C46.343 22.3884 49.2124 22.1108 52.1145 22.4211C54.5274 22.6824 56.4676 23.8908 57.9023 25.8341C59.5326 28.0223 59.9239 30.5371 59.3696 33.1662C59.125 34.3747 58.7337 35.5668 58.4077 36.7752C58.3425 36.9385 58.2609 37.1018 58.1957 37.2651C57.9675 37.706 57.7392 38.1306 57.4947 38.5715C57.4458 38.6531 57.3969 38.7348 57.3316 38.8001C57.3153 38.8491 57.2827 38.8817 57.2664 38.9307C57.2175 39.0124 57.1686 39.094 57.1034 39.1757C57.0545 39.2573 57.0056 39.339 56.9567 39.4043C56.9403 39.437 56.9077 39.4696 56.8914 39.5023C56.8099 39.6166 56.7284 39.7472 56.6469 39.8615C56.4512 40.1392 56.2393 40.4331 56.0437 40.7107C56.011 40.7597 55.9784 40.8087 55.9458 40.8577C55.9132 40.8903 55.8969 40.923 55.8643 40.9393C55.848 40.972 55.8154 41.0047 55.7991 41.0373C55.7828 41.07 55.7502 41.0863 55.7339 41.119C55.685 41.2006 55.6198 41.2659 55.5708 41.3476C55.3915 41.5599 55.2122 41.7558 55.0328 41.9681C55.0165 42.0008 54.9839 42.0171 54.9676 42.0498C54.935 42.0988 54.8861 42.1478 54.8535 42.1804C54.8372 42.1967 54.8209 42.2294 54.8046 42.2457C54.2177 42.8336 53.6307 43.4215 53.0438 44.0094C53.0112 44.042 52.9949 44.0584 52.9623 44.091C52.9297 44.1073 52.9134 44.1237 52.8808 44.14C52.8318 44.189 52.7666 44.238 52.7177 44.287C52.6688 44.3196 52.6362 44.3523 52.5873 44.385C52.5547 44.4013 52.5384 44.4339 52.5058 44.4503C52.4732 44.4829 52.4406 44.4993 52.408 44.5319C52.359 44.5809 52.3101 44.6136 52.2612 44.6626C52.2123 44.6952 52.1634 44.7442 52.1308 44.7769C52.033 44.8585 51.9351 44.9239 51.821 45.0055C51.7884 45.0218 51.7558 45.0545 51.7232 45.0708C51.7069 45.0871 51.6743 45.1035 51.658 45.1361C51.4786 45.2668 51.2993 45.3974 51.12 45.5281C51.0058 45.5934 50.908 45.6587 50.7939 45.724C48.0712 47.5856 45.1202 48.9247 41.8106 49.3166C39.952 49.5289 38.1097 49.5616 36.2674 49.1207C34.2457 48.6308 32.5339 47.6836 31.3763 45.871C30.5285 44.5483 29.8927 43.1602 29.7948 41.5762C29.6318 38.9307 30.284 36.4159 31.4252 34.0807C32.811 31.2556 34.8816 28.9694 37.3434 27.0262C37.8977 26.5853 38.4847 26.177 39.0553 25.7361C38.2075 23.6622 37.3597 21.6046 36.5119 19.547C36.4793 19.449 36.2837 19.3837 36.1533 19.3837C35.4685 19.3674 34.7837 19.3837 34.0827 19.3674C33.0393 19.3511 32.0774 18.5182 31.9143 17.4894C31.8491 17.0159 31.8817 16.4933 31.8654 15.9707ZM48.6092 31.027C48.5114 30.978 48.3973 30.929 48.2994 30.88C48.2505 30.8637 48.2016 30.8311 48.1364 30.8147C48.1038 30.8147 48.0875 30.7984 48.0549 30.7984C48.0386 30.7821 48.0386 30.7821 48.0223 30.7984C47.0278 30.3901 46.0495 30.5861 44.9898 30.7984C45.2181 31.3046 45.4137 31.7455 45.6093 32.1864C45.805 32.6763 46.0169 33.1662 46.2126 33.6561C46.2452 33.7378 46.2778 33.8194 46.2941 33.8848C46.4897 34.3747 46.6691 34.8482 46.8647 35.3381C47.1745 36.122 46.8973 36.7589 46.1311 37.0854C45.8213 37.2161 45.5115 37.3304 45.2181 37.461C44.5007 37.7386 43.8649 37.4774 43.5551 36.7752C43.2616 36.0893 43.0008 35.4035 42.7073 34.7339C42.3975 33.9991 42.1041 33.2642 41.778 32.4967C40.2944 33.6725 39.2672 35.0769 38.8923 36.9058C38.3868 39.388 39.9194 41.2986 42.4627 41.3313C45.5441 41.3802 47.7451 39.8616 49.3755 37.3631C49.9624 36.5629 50.1744 35.6321 50.3211 34.6686C50.3211 34.5706 50.3374 34.4563 50.3374 34.3583C50.3374 34.2114 50.3374 34.0644 50.3374 33.9011C50.3211 33.8031 50.3048 33.6888 50.2885 33.5908C50.207 33.2642 50.1254 32.9376 50.0439 32.5947C50.0276 32.5457 49.995 32.4967 49.9787 32.4314C49.8646 32.2518 49.7668 32.0721 49.6526 31.8925C49.6363 31.8598 49.6037 31.8435 49.5874 31.8109C49.3755 31.6312 49.1798 31.4516 48.9679 31.2556C48.8701 31.174 48.7396 31.0923 48.6092 31.027ZM32.6643 6.51567C32.2404 6.0421 31.8817 5.63385 31.5556 5.25826C31.2622 5.69917 30.985 6.12375 30.7242 6.51567C31.2948 6.51567 31.9306 6.51567 32.6643 6.51567Z" fill="#BE0000"/>
<path d="M49.0007 31.256C48.8702 31.1743 48.7398 31.109 48.6094 31.0273C48.7398 31.0927 48.8702 31.1743 49.0007 31.256Z" fill="#8DB156"/>
<path d="M48.6086 31.0278C48.5108 30.9788 48.3966 30.9298 48.2988 30.8809C48.3966 30.9298 48.4945 30.9788 48.6086 31.0278Z" fill="#8DB156"/>
<path d="M57.4619 38.6035C57.413 38.6852 57.364 38.7668 57.2988 38.8321C57.3477 38.7505 57.413 38.6852 57.4619 38.6035Z" fill="#8CB155"/>
<path d="M57.2333 38.9629C57.1844 39.0445 57.1355 39.1262 57.0703 39.2078C57.1192 39.1262 57.1844 39.0445 57.2333 38.9629Z" fill="#8CB155"/>
<path d="M57.0706 39.209C57.0216 39.2906 56.9727 39.3723 56.9238 39.4376C56.9727 39.3723 57.0216 39.2906 57.0706 39.209Z" fill="#8CB155"/>
<path d="M55.7177 41.1348C55.6688 41.2164 55.6036 41.2817 55.5547 41.3634C55.6036 41.2817 55.6525 41.2164 55.7177 41.1348Z" fill="#8CB155"/>
<path d="M52.8642 44.1719C52.8153 44.2209 52.7501 44.2699 52.7012 44.3188C52.7664 44.2699 52.8153 44.2209 52.8642 44.1719Z" fill="#8CB155"/>
<path d="M46.2109 33.6406C46.2435 33.7223 46.2762 33.8039 46.2925 33.8692C46.2598 33.8039 46.2272 33.7223 46.2109 33.6406Z" fill="#8DB156"/>
<path d="M56.0105 40.7598C55.9777 40.8091 55.9449 40.8583 55.9121 40.9076C55.9449 40.8419 55.9777 40.7926 56.0105 40.7598Z" fill="#8CB155"/>
<path d="M54.9508 42.0664C54.918 42.1157 54.8687 42.165 54.8359 42.1979C54.8687 42.1486 54.9016 42.1157 54.9508 42.0664Z" fill="#8CB155"/>
<path d="M52.7015 44.3203C52.6523 44.3532 52.6195 44.386 52.5703 44.4189C52.6195 44.4025 52.6687 44.3696 52.7015 44.3203Z" fill="#8CB155"/>
<path d="M52.2621 44.6953C52.2129 44.7282 52.1637 44.7775 52.1309 44.8103C52.1637 44.7775 52.2129 44.7446 52.2621 44.6953Z" fill="#8CB155"/>
<path d="M48.1367 30.8152C48.1039 30.8152 48.0875 30.7988 48.0547 30.7988C48.0875 30.7988 48.1203 30.8152 48.1367 30.8152Z" fill="#8DB156"/>
<path d="M55.9121 40.8906C55.8793 40.9238 55.8629 40.957 55.8301 40.9737C55.8629 40.9404 55.8957 40.9238 55.9121 40.8906Z" fill="#8CB155"/>
<path d="M55.8469 40.9727C55.8305 41.0055 55.7977 41.0384 55.7812 41.0712C55.7977 41.0384 55.8305 41.0055 55.8469 40.9727Z" fill="#8CB155"/>
<path d="M53.0273 44.043C52.9945 44.0762 52.9781 44.0928 52.9453 44.126C52.9781 44.0928 52.9945 44.0596 53.0273 44.043Z" fill="#8CB155"/>
<path d="M52.4891 44.5C52.4562 44.5332 52.4234 44.5498 52.3906 44.583C52.4398 44.5498 52.4727 44.5332 52.4891 44.5Z" fill="#8CB155"/>
<path d="M51.8055 45.0391C51.7726 45.0557 51.7398 45.0889 51.707 45.1055C51.7562 45.0889 51.789 45.0723 51.8055 45.0391Z" fill="#8CB155"/>
<path d="M13.3437 39.7467C13.3437 39.7304 13.3437 39.6977 13.3437 39.6814C13.4578 39.5017 13.5556 39.3384 13.6698 39.1588C13.8002 38.9465 13.9306 38.7505 14.0611 38.5383C14.1915 38.326 14.3219 38.13 14.4523 37.9177C14.4686 37.8851 14.5013 37.8524 14.5176 37.8197C14.5502 37.7708 14.5828 37.7218 14.6154 37.6728C15.5936 36.1214 16.5718 34.5864 17.55 33.0187C17.6805 32.8228 17.8109 32.7411 18.0391 32.7411C22.0335 32.7411 26.0442 32.7411 30.0386 32.7411C30.1201 32.7411 30.1853 32.7574 30.3484 32.7738C29.9897 33.7209 29.6962 34.6517 29.3049 35.5499C28.0985 38.277 26.5659 40.8081 24.5443 42.9637C21.5607 46.148 17.9902 48.4506 13.735 49.5447C10.9471 50.2632 8.14285 50.1326 5.43645 49.1364C2.76266 48.1566 1.16491 46.1644 0.382335 43.4699C-0.335024 41.0204 0.0399589 38.6526 0.822532 36.3174C1.93118 32.9697 3.855 30.1773 6.49619 27.8584C7.19724 27.2379 7.94721 26.6664 8.66457 26.0621C8.25698 25.7029 7.78417 25.3599 7.37658 24.9354C7.16464 24.7231 6.98529 24.3965 6.95269 24.1189C6.88747 23.6126 6.85487 23.0737 6.93639 22.5675C7.06681 21.702 7.67005 21.2448 8.50153 21.0488C15.1208 21.0488 21.7401 21.0488 28.343 21.0652C28.7343 21.0652 29.1256 21.1141 29.5169 21.1468C29.5658 21.1631 29.631 21.1958 29.6799 21.2121C30.4625 21.6857 30.6907 22.3716 30.7396 23.2697C30.7886 24.2332 30.4462 24.8537 29.6962 25.4253C26.8105 27.5972 23.9574 29.818 21.1042 32.0063C20.8271 31.843 20.5662 31.696 20.3053 31.549C20.0934 31.451 19.8978 31.3367 19.6858 31.2388C19.3597 31.1081 19.0174 30.9775 18.6913 30.8632C17.55 30.5039 16.4088 30.5202 15.2512 30.8142C15.2186 30.8305 15.186 30.8468 15.1697 30.8632C15.0882 30.8958 15.0067 30.9122 14.9415 30.9448C14.8925 30.9611 14.8436 30.9611 14.7947 30.9775C14.7621 30.9938 14.7295 31.0101 14.6969 31.0101V31.0428V31.0101C14.2404 31.2224 13.7839 31.4347 13.3274 31.647C13.197 31.7287 13.0665 31.794 12.9361 31.8756C12.8546 31.9246 12.7731 31.9736 12.7079 32.0389C12.6753 32.0389 12.6589 32.0553 12.6426 32.0716C12.5937 32.1206 12.5285 32.1532 12.4796 32.2022C12.3818 32.2839 12.2677 32.3655 12.1698 32.4308C12.1372 32.4635 12.1046 32.4798 12.0883 32.5125C11.8601 32.7248 11.6318 32.9207 11.4036 33.133C11.371 33.1657 11.3547 33.182 11.3221 33.2147C10.2786 34.1455 9.65909 35.3376 9.2515 36.644C9.03955 37.3135 8.90912 37.983 9.08846 38.6852C9.12107 39.6977 10.2134 41.3633 11.6318 41.4777L11.6481 41.5103H11.6807C11.7459 41.5267 11.7949 41.543 11.8601 41.543C12.7242 41.7389 13.5883 41.8369 14.4687 41.5756V41.592C14.5339 41.5756 14.6154 41.5593 14.6806 41.543C14.7295 41.5267 14.7784 41.5103 14.8436 41.494C14.8762 41.494 14.8925 41.4777 14.9251 41.4777C14.9578 41.4613 15.0067 41.445 15.0393 41.4287H15.0556L15.0719 41.4123C15.2512 41.3307 15.4306 41.2654 15.6262 41.1837C15.9849 40.9714 16.3436 40.7755 16.7022 40.5632C17.012 40.3182 17.3381 40.0896 17.6479 39.8447C17.6316 39.812 17.6152 39.7957 17.5989 39.763C16.1316 39.7467 14.7458 39.7467 13.3437 39.7467Z" fill="#040806"/>
<path d="M79.6509 22.4707C80.1237 22.5687 80.6128 22.6177 81.0693 22.7646C83.3844 23.5158 84.542 25.5407 83.9714 27.9249C83.2214 31.0603 81.3302 33.3465 78.5749 34.9468C78.4281 35.0285 78.2651 35.1101 78.0694 35.2244C78.3303 35.502 78.5749 35.7633 78.8031 36.0409C79.5857 36.9391 80.1726 37.9352 80.1237 39.16C80.0911 39.9601 79.9444 40.7766 79.7324 41.5605C78.9009 44.6468 76.8141 46.7044 74.0914 48.2068C72.4447 49.1213 70.7002 49.5622 68.8253 49.5622C62.7767 49.5458 56.7117 49.5622 50.6631 49.5622C50.3533 49.5622 50.0272 49.5622 49.7012 49.4969C50.174 49.2519 50.6631 49.0233 51.1359 48.7783C55.1792 46.6228 58.2769 43.5201 60.6246 39.6009C62.1897 36.9881 63.0375 34.1467 63.2169 31.1093C63.3962 28.1046 62.5158 25.4264 60.5105 23.1566C60.3148 22.9279 60.1192 22.6993 59.9235 22.487C60.7224 22.487 61.5213 22.5034 62.3365 22.5034C66.4776 22.5034 70.6187 22.5197 74.7598 22.5197C76.3902 22.487 78.0205 22.4707 79.6509 22.4707ZM73.9283 32.1871C73.9283 32.1871 73.9283 32.2034 73.9283 32.1871C74.0099 32.1217 74.0751 32.0401 74.1566 31.9584C74.1892 31.9258 74.2055 31.8931 74.2381 31.8768C74.2544 31.8441 74.2707 31.8115 74.3033 31.7788C74.7435 31.2399 74.7761 30.8153 74.4664 30.3091C74.3685 30.2111 74.2544 30.1131 74.1566 30.0152C74.0098 29.9662 73.8794 29.8682 73.7327 29.8682C72.9501 29.8355 72.1675 29.8029 71.3687 29.7865C70.7491 29.7702 70.7491 29.7865 70.6187 30.4071C70.5372 30.6194 70.472 30.8153 70.3904 31.0276C70.3741 31.0766 70.3415 31.1419 70.3252 31.1909C70.3089 31.2073 70.3089 31.2236 70.3089 31.2562C70.097 31.7951 69.885 32.334 69.6731 32.8892C70.5209 32.8892 71.3198 32.9219 72.1186 32.8729C72.7382 32.8403 73.3577 32.7259 73.8468 32.2687C73.8631 32.236 73.8957 32.2197 73.9283 32.1871ZM66.3798 41.9687C67.1949 41.9687 67.9449 41.9197 68.6786 41.9851C70.0155 42.083 71.0426 40.9073 71.2382 39.8132C71.3524 39.1436 71.1567 38.7354 70.5046 38.5558C69.9503 38.4088 69.347 38.3598 68.7764 38.3435C67.7167 38.3108 67.7167 38.3271 67.358 39.3069C67.3417 39.3559 67.3254 39.4049 67.3091 39.4539C66.9993 40.2704 66.7058 41.0869 66.3798 41.9687Z" fill="#040806"/>
<path d="M95.4807 30.4234C95.4644 30.4071 95.4481 30.4071 95.4154 30.4071C95.5296 30.1948 95.6274 29.9825 95.7415 29.7702V29.7539C95.7741 29.6722 95.823 29.5906 95.8719 29.5089C95.9046 29.4763 95.9209 29.4599 95.9535 29.4273C95.9861 29.3783 96.0024 29.313 96.035 29.264C96.0513 29.2313 96.0839 29.215 96.1002 29.1823C96.1165 29.166 96.1165 29.1497 96.1165 29.117C96.1491 29.0844 96.1654 29.0517 96.198 29.019C96.2469 28.9374 96.2958 28.8557 96.3284 28.7741C96.3611 28.7251 96.3937 28.6761 96.4263 28.6434C96.5567 28.4312 96.6708 28.2189 96.8013 28.0229C96.8828 27.8923 96.948 27.7616 97.0295 27.631C97.0621 27.582 97.0947 27.533 97.1273 27.484C97.6816 26.5695 98.236 25.6714 98.7903 24.7569C99.2142 24.071 99.6055 23.3689 100.046 22.6993C100.127 22.585 100.355 22.487 100.502 22.487C102.931 22.4707 105.377 22.4707 107.806 22.487C108.051 22.487 108.279 22.487 108.572 22.487C107.496 25.4428 106.42 28.3985 105.361 31.3379C105.377 31.3542 105.393 31.3542 105.41 31.3706C106.094 30.652 106.763 29.9335 107.448 29.1987C109.502 27.0104 111.54 24.8222 113.594 22.6503C113.692 22.5523 113.871 22.4707 114.018 22.4707C116.741 22.4707 119.48 22.4707 122.202 22.4707C122.382 22.4707 122.545 22.4707 122.773 22.4707C122.708 22.5687 122.675 22.634 122.642 22.683C119.153 26.4716 115.665 30.2438 112.176 34.0323C111.833 34.3916 111.491 34.7509 111.181 35.1428C111.083 35.2734 111.002 35.4857 111.034 35.649C111.752 39.5356 112.469 43.4384 113.186 47.325C113.317 48.0272 113.447 48.7457 113.578 49.4805C113.447 49.4969 113.366 49.5132 113.284 49.5132C110.268 49.5132 107.236 49.4969 104.219 49.5132C103.991 49.5132 103.926 49.4479 103.877 49.2356C103.355 46.3778 102.817 43.5364 102.296 40.6787C102.263 40.5154 102.23 40.3521 102.181 40.0908C101.969 40.6787 101.79 41.1522 101.611 41.6585C100.698 44.1733 99.7848 46.6881 98.8718 49.2029C98.774 49.4805 98.6436 49.5622 98.3501 49.5622C95.9535 49.5458 93.5568 49.5622 91.1602 49.5459C90.8994 49.5459 90.6548 49.5459 90.3613 49.5459C90.3939 49.4152 90.4102 49.3336 90.4428 49.2356C92.3341 44.059 94.209 38.8824 96.1002 33.7057C96.4426 32.7423 96.7687 31.7951 97.111 30.8317C97.1599 30.7174 97.2251 30.603 97.2904 30.4561C96.6382 30.4234 96.0676 30.4234 95.4807 30.4234Z" fill="#040806"/>
<path d="M138.767 32.4143C138.718 32.5286 138.702 32.6429 138.637 32.7572C137.267 34.9944 135.881 37.2153 134.496 39.4362C134.349 39.4362 134.219 39.4525 134.072 39.4525C131.561 39.4525 129.05 39.4688 126.523 39.4688C126.474 39.5178 126.425 39.5668 126.376 39.6158C126.36 39.6321 126.36 39.6485 126.36 39.6811C126.181 40.1384 126.002 40.5793 125.822 41.0692C127.241 41.0692 128.61 41.0692 129.963 41.0692C131.822 41.0692 133.681 41.0855 135.539 41.0855C134.235 43.2737 132.914 45.4456 131.61 47.6338C131.284 48.1727 130.974 48.7279 130.615 49.2668C130.534 49.3975 130.322 49.5281 130.175 49.5281C124.974 49.5444 119.774 49.5444 114.573 49.5444C114.507 49.5444 114.442 49.5281 114.328 49.5281C116.611 43.2411 118.877 37.003 121.176 30.6996C120.54 30.6996 119.953 30.6996 119.317 30.6996C119.545 30.2914 119.757 29.9321 119.969 29.5728C121.306 27.303 122.659 25.0331 124.012 22.7796C124.094 22.6489 124.306 22.5183 124.453 22.5183C130.485 22.502 136.501 22.502 142.533 22.502C142.647 22.502 142.762 22.5183 142.941 22.5183C142.745 22.8612 142.566 23.1715 142.403 23.4654C141.229 25.4577 140.055 27.4336 138.898 29.4259C138.865 29.4749 138.865 29.5239 138.849 29.5728C138.784 29.6708 138.735 29.7688 138.669 29.8668C138.621 29.9484 138.572 30.0301 138.523 30.1117C138.392 30.324 138.278 30.52 138.148 30.7323C137.985 30.7976 137.822 30.9119 137.642 30.9282C135.05 30.9446 132.458 30.9446 129.865 30.9609C129.751 30.9609 129.621 31.0262 129.507 31.0589C129.474 31.1242 129.442 31.2058 129.425 31.2712C129.279 31.6468 129.148 32.0223 128.985 32.4469C129.181 32.4469 129.327 32.4469 129.458 32.4469C130.909 32.4469 132.36 32.4469 133.811 32.4469C135.458 32.4143 137.121 32.4143 138.767 32.4143Z" fill="#050806"/>
<path d="M162 24.364C160.532 26.8625 159.049 29.361 157.598 31.8105C156.342 31.239 155.136 30.6674 153.897 30.1285C152.919 29.7039 151.875 29.4916 150.799 29.7039C150.147 29.8346 149.723 30.2592 149.478 30.8634C149.283 31.3533 149.511 31.8105 150.049 32.0228C151.337 32.5617 152.658 33.0516 153.913 33.6395C156.505 34.8316 157.581 37.2321 156.831 39.9918C156.13 42.523 154.647 44.5316 152.69 46.2299C150.93 47.7649 148.924 48.8754 146.642 49.4143C145.843 49.5939 145.011 49.6919 144.196 49.7735C141.05 50.0675 138.147 49.2673 135.392 47.8139C134.952 47.5853 134.544 47.324 134.088 47.0464C135.555 44.5479 137.006 42.0657 138.49 39.5509C139.126 39.8939 139.729 40.2205 140.348 40.5307C141.669 41.2003 142.973 41.9025 144.424 42.1964C145.011 42.3107 145.631 42.2944 146.234 42.2617C146.805 42.2291 147.212 41.8371 147.489 41.3636C147.864 40.7104 147.652 40.1878 146.951 39.8939C145.598 39.3386 144.212 38.8487 142.908 38.1792C140.789 37.1178 139.664 35.1255 140.104 32.6923C140.43 30.847 141.261 29.2467 142.403 27.8097C144.587 25.0825 147.326 23.2209 150.75 22.4697C154.663 21.6206 158.38 22.3064 161.869 24.2497C161.934 24.2987 161.951 24.3314 162 24.364Z" fill="#040806"/>
<path d="M97.1615 22.4702C97.08 22.7804 96.9985 23.0744 96.9007 23.3683C94.504 29.9656 92.1074 36.5466 89.7108 43.1276C88.9771 45.1199 88.2598 47.1285 87.5424 49.1207C87.4283 49.431 87.2979 49.5126 86.9718 49.5126C84.4121 49.4963 81.8524 49.4963 79.2928 49.4963C79.2276 49.4963 79.1461 49.48 79.0156 49.4637C81.3144 43.1276 83.6132 36.8242 85.9283 30.4719C85.2925 30.4719 84.7056 30.4719 84.0534 30.4719C84.5588 29.639 85.0317 28.8552 85.5045 28.0714C86.4012 26.6017 87.2978 25.132 88.1782 23.6623C88.2272 23.5806 88.2598 23.499 88.2924 23.4173C88.4065 23.2377 88.5532 23.0744 88.6348 22.8784C88.7978 22.5355 89.026 22.4375 89.4173 22.4375C91.9933 22.4865 94.5856 22.4865 97.1615 22.4702Z" fill="#040806"/>
<path d="M18.627 30.8809C18.953 31.0115 19.2954 31.1421 19.6215 31.2564C19.2954 31.1258 18.953 30.9952 18.627 30.8809Z" fill="#8EB355"/>
<path d="M15.5602 41.1523C15.3808 41.234 15.2015 41.2993 15.0059 41.381C15.2015 41.2993 15.3808 41.2177 15.5602 41.1523Z" fill="#93B75B"/>
<path d="M12.1055 32.4142C12.2033 32.3325 12.3174 32.2509 12.4152 32.1855C12.3174 32.2509 12.2033 32.3325 12.1055 32.4142Z" fill="#86AD54"/>
<path d="M95.8726 29.5078C95.8237 29.5895 95.7911 29.6711 95.7422 29.7528C95.7911 29.6711 95.84 29.5895 95.8726 29.5078Z" fill="#90BB59"/>
<path d="M12.6426 32.0227C12.7241 31.9737 12.8056 31.9247 12.8708 31.8594C12.7893 31.9247 12.7078 31.9737 12.6426 32.0227Z" fill="#86AD54"/>
<path d="M138.523 30.0965C138.572 30.0149 138.621 29.9332 138.67 29.8516C138.621 29.9332 138.572 30.0149 138.523 30.0965Z" fill="#93BB5D"/>
<path d="M96.3121 28.8066C96.2632 28.8883 96.2142 28.9699 96.1816 29.0516C96.2306 28.9699 96.2632 28.8883 96.3121 28.8066Z" fill="#90BB59"/>
<path d="M14.8594 30.9458C14.9409 30.9128 15.0224 30.8963 15.0876 30.8633C15.0061 30.8963 14.9409 30.9128 14.8594 30.9458Z" fill="#8EB355"/>
<path d="M14.6319 41.4941C14.5667 41.5104 14.4851 41.5267 14.4199 41.543C14.4851 41.5267 14.5667 41.5104 14.6319 41.4941Z" fill="#92BA5B"/>
<path d="M12.4141 32.1697C12.463 32.1207 12.5282 32.0881 12.5771 32.0391C12.5119 32.0881 12.463 32.137 12.4141 32.1697Z" fill="#86AD54"/>
<path d="M97.1121 27.5156C97.0793 27.5649 97.0465 27.6142 97.0137 27.6635C97.0465 27.6142 97.0793 27.5649 97.1121 27.5156Z" fill="#90BB59"/>
<path d="M14.5672 37.6895C14.5344 37.7387 14.5016 37.788 14.4688 37.8373C14.518 37.788 14.5508 37.7387 14.5672 37.6895Z" fill="#93B75B"/>
<path d="M96.019 29.2793C95.9864 29.3283 95.9701 29.3936 95.9375 29.4426C95.9701 29.3773 96.0027 29.3283 96.019 29.2793Z" fill="#90BB59"/>
<path d="M29.6318 21.2301C29.5829 21.2136 29.5177 21.1806 29.4688 21.1641C29.5177 21.1971 29.5666 21.2136 29.6318 21.2301Z" fill="#91BB5C"/>
<path d="M96.1836 29.0508C96.1508 29.0836 96.1344 29.1165 96.1016 29.1494C96.1344 29.1165 96.1508 29.0836 96.1836 29.0508Z" fill="#90BB59"/>
<path d="M96.0851 29.1973C96.0687 29.2305 96.0359 29.2471 96.0195 29.2803C96.0523 29.2471 96.0687 29.2305 96.0851 29.1973Z" fill="#90BB59"/>
<path d="M95.9551 29.4258C95.9223 29.459 95.9059 29.4756 95.873 29.5088C95.9059 29.4922 95.9223 29.459 95.9551 29.4258Z" fill="#90BB59"/>
<path d="M14.7137 30.9609C14.7137 30.9775 14.7137 31.0108 14.7137 31.0274C14.6809 31.0108 14.648 31.0108 14.6152 30.9941C14.648 30.9941 14.6809 30.9775 14.7137 30.9609Z" fill="#86AD54"/>
<path d="M14.4855 37.8535C14.4691 37.8864 14.4363 37.9192 14.4199 37.9521C14.4363 37.9028 14.4527 37.8699 14.4855 37.8535Z" fill="#93B75B"/>
<path d="M11.2734 33.1846C11.3062 33.1514 11.3227 33.1348 11.3555 33.1016C11.3227 33.1182 11.2898 33.1514 11.2734 33.1846Z" fill="#8BB255"/>
<path d="M12.0234 32.4815C12.0562 32.4483 12.0891 32.4316 12.1055 32.3984C12.0891 32.4316 12.0562 32.4483 12.0234 32.4815Z" fill="#86AD54"/>
<path d="M11.6312 41.4781H11.5984L11.582 41.4453C11.5984 41.4453 11.6148 41.4617 11.6312 41.4781Z" fill="#92BA5B"/>
<path d="M70.3894 31.0273C70.3731 31.0763 70.3405 31.1417 70.3242 31.1906C70.3405 31.1253 70.3731 31.0763 70.3894 31.0273Z" fill="#8FB456"/>
<path d="M74.1562 31.9756C74.1891 31.9424 74.2055 31.9092 74.2383 31.8926C74.2055 31.9092 74.1891 31.9424 74.1562 31.9756Z" fill="#8FB456"/>
<path d="M48 14.8418L161 14.8418" stroke="#BE0000" stroke-width="2" stroke-linecap="round"/>
<path d="M1 14.8418H25" stroke="#BE0000" stroke-width="2" stroke-linecap="round"/>
</svg>
