<svg width="19" height="19" viewBox="0 0 19 19" fill="none" xmlns="http://www.w3.org/2000/svg">
<path d="M9.40593 18.7731C9.25548 18.637 9.07909 18.5204 8.95977 18.3648C7.78213 16.7947 6.5993 15.2294 5.45798 13.6398C4.51379 12.3224 3.68892 10.9419 3.11826 9.4398C2.7603 8.49674 2.53722 7.52938 2.55797 6.51827C2.60985 3.69883 4.71093 1.13216 7.61093 0.373828C8.03634 0.262022 8.48768 0.218272 8.92346 0.140494C8.96496 0.130772 9.01165 0.12105 9.05315 0.111328C9.39036 0.111328 9.72757 0.111328 10.0648 0.111328C10.4487 0.174523 10.8326 0.213411 11.2061 0.29605C13.9816 0.90855 16.1086 3.13008 16.4925 5.77452C16.6948 7.15994 16.3991 8.46758 15.8752 9.74605C15.2526 11.2724 14.3707 12.6773 13.3954 14.019C12.3007 15.5308 11.1698 17.0183 10.0492 18.5155C9.96621 18.6224 9.82614 18.6905 9.71201 18.778C9.61344 18.7731 9.50968 18.7731 9.40593 18.7731ZM9.56156 17.237C9.5875 17.2079 9.60825 17.1884 9.62901 17.1641C10.6147 15.8467 11.6108 14.5342 12.5705 13.2023C13.4888 11.9287 14.3084 10.5967 14.8687 9.14327C15.2682 8.11758 15.5016 7.06272 15.346 5.96411C14.931 3.02799 12.1503 0.957161 8.99609 1.22452C6.64081 1.42383 4.60198 3.01341 3.9535 5.14258C3.5696 6.39188 3.70449 7.61688 4.13508 8.83216C4.59161 10.1301 5.25565 11.3405 6.05977 12.478C7.18034 14.0627 8.35279 15.6134 9.5045 17.1787C9.52006 17.1981 9.53562 17.2127 9.56156 17.237Z" fill="#F7F7F7"/>
<path d="M13.0642 6.67966C13.059 8.48799 11.4819 9.95605 9.55198 9.95118C7.6221 9.94632 6.05537 8.46854 6.06056 6.66021C6.06575 4.85188 7.64285 3.38382 9.57273 3.38868C11.4974 3.39355 13.0642 4.87132 13.0642 6.67966ZM11.8969 6.66993C11.8969 5.46438 10.8438 4.48243 9.55717 4.48243C8.28096 4.48243 7.23301 5.46924 7.22782 6.66021C7.22264 7.86577 8.27577 8.85257 9.55717 8.85257C10.8438 8.85743 11.8969 7.87063 11.8969 6.66993Z" fill="#F7F7F7"/>
</svg>
