<svg width="33" height="19" viewBox="0 0 33 19" fill="none" xmlns="http://www.w3.org/2000/svg">
<path d="M22.6524 16.6735L22.6535 16.6746L23.5207 17.5418C23.7714 17.7924 24.1743 17.7908 24.4195 17.5429L24.4207 17.5417L32.0144 9.95193C32.0145 9.95191 32.0145 9.95189 32.0145 9.95187C32.2651 9.70121 32.2634 9.29833 32.0156 9.05311L32.0144 9.05197L24.4207 1.45822C24.17 1.20756 23.7671 1.2092 23.5219 1.45709L23.5207 1.45822L22.6535 2.32541C22.402 2.57693 22.4065 2.98888 22.6645 3.23641C22.6645 3.23646 22.6646 3.23652 22.6647 3.23657L27.371 7.72029L27.9139 8.2375H27.1641L0.9375 8.2375C0.583654 8.2375 0.3 8.52115 0.3 8.875L0.3 10.125C0.3 10.4788 0.583654 10.7625 0.9375 10.7625L27.1641 10.7625H27.9139L27.371 11.2797L22.664 15.7641L22.6635 15.7645C22.4029 16.0118 22.3985 16.4222 22.6524 16.6735Z" fill="white" stroke="#BE0000" stroke-width="0.6"/>
</svg>
