<svg width="37" height="21" viewBox="0 0 37 21" fill="none" xmlns="http://www.w3.org/2000/svg">
<path d="M35.75 14.8018L35.7173 14.9089C35.6775 15.0389 35.6367 15.1894 35.5926 15.3518C35.4729 15.7924 35.3294 16.3212 35.1193 16.7694L35.1191 16.7698C34.0949 18.9524 31.7624 20.3588 29.4152 20.2434L29.4145 20.2434C27.137 20.129 25.1949 18.9106 24.1775 16.9862C24.084 17.0482 23.9862 17.1037 23.8842 17.1528C23.4016 17.3853 22.8792 17.4487 22.3765 17.4446L22.3754 17.4446C20.4833 17.4264 18.5989 17.4285 16.709 17.4305C15.626 17.4317 14.5413 17.4329 13.4524 17.4303C13.1612 17.4302 12.8705 17.3947 12.5933 17.3331C12.0147 18.2824 11.2121 19.0003 10.2446 19.5236C6.8608 21.366 2.4619 19.4759 1.46853 15.7493L1.46825 15.7482C0.545684 12.2667 2.62941 8.87848 6.12089 8.10885C6.24125 7.91267 6.40712 7.7413 6.62549 7.62246C6.91732 7.46366 7.23018 7.43826 7.51042 7.48262C7.88458 7.53787 8.23185 7.65351 8.54202 7.78046L8.54854 7.78313L8.54853 7.78316C9.32497 8.1095 10.1012 8.43934 10.8758 8.7685L10.8766 8.76885C10.9257 8.7897 10.9748 8.81054 11.0238 8.83138C9.9862 8.30008 8.94939 7.76881 7.91269 7.23759L7.91231 7.2374C6.53001 6.52908 5.1479 5.82087 3.76404 5.11268C3.54653 5.00403 3.27357 4.85361 3.03242 4.63451C2.67779 4.31535 2.49709 3.83952 2.6208 3.36067C2.74438 2.88231 3.13188 2.55373 3.59334 2.44041L3.60392 2.43781L3.60393 2.43789C3.84667 2.382 4.0962 2.35449 4.34414 2.35433L4.34529 2.35432C5.62024 2.34718 6.90253 2.33999 8.18587 2.35436C8.8112 2.35897 9.39525 2.50223 9.90673 2.81373C10.4185 3.12542 10.8151 3.57965 11.105 4.13996C11.1396 4.20591 11.1703 4.26576 11.1986 4.32083C11.2878 4.49467 11.3526 4.62095 11.4371 4.74145C11.5303 4.87456 11.6115 4.94248 11.7052 4.98293C11.892 5.0592 12.0725 5.10373 12.2253 5.1122L12.2353 5.11275L12.2353 5.11282C12.4947 5.13067 12.7402 5.12682 13.0172 5.12247C13.1493 5.1204 13.2885 5.11821 13.4398 5.11821C13.9035 5.11821 14.2112 4.9371 14.4578 4.52251C14.481 4.48229 14.5059 4.43832 14.5323 4.39191C14.6105 4.25404 14.701 4.09459 14.7949 3.9479C15.4459 2.91617 16.4555 2.3735 17.699 2.48628L17.701 2.48645C19.4484 2.6495 21.2003 2.83435 22.9467 3.03136C22.9454 3.02882 22.944 3.02629 22.9427 3.02376C22.7275 2.62863 22.6694 2.16258 22.8513 1.73043C23.0317 1.30165 23.4011 1.01808 23.8207 0.885814C24.0272 0.819671 24.4006 0.710284 24.7851 0.765078L24.7938 0.766315L24.7938 0.766366C25.916 0.939729 27.1313 1.17582 28.2571 1.78508M35.75 14.8018L27.9018 2.44558M35.75 14.8018V14.6897V14.6877V14.6857V14.6837V14.6817V14.6797V14.6776V14.6756V14.6736V14.6716V14.6696V14.6676V14.6656V14.6635V14.6615V14.6595V14.6575V14.6555V14.6535V14.6515V14.6495V14.6474V14.6454V14.6434V14.6414V14.6394V14.6374V14.6354V14.6333V14.6313V14.6293V14.6273V14.6253V14.6233V14.6213V14.6192V14.6172V14.6152V14.6132V14.6112V14.6092V14.6072V14.6051V14.6031V14.6011V14.5991V14.5971V14.5951V14.593V14.591V14.589V14.587V14.585V14.583V14.581V14.5789V14.5769V14.5749V14.5729V14.5709V14.5689V14.5668V14.5648V14.5628V14.5608V14.5588V14.5568V14.5548V14.5527V14.5507V14.5487V14.5467V14.5447V14.5427V14.5406V14.5386V14.5366V14.5346V14.5326V14.5306V14.5285V14.5265V14.5245V14.5225V14.5205V14.5185V14.5164V14.5144V14.5124V14.5104V14.5084V14.5063V14.5043V14.5023V14.5003V14.4983V14.4963V14.4942V14.4922V14.4902V14.4882V14.4862V14.4841V14.4821V14.4801V14.4781V14.4761V14.4741V14.472V14.47V14.468V14.466V14.464V14.4619V14.4599V14.4579V14.4559V14.4539V14.4518V14.4498V14.4478V14.4458V14.4437V14.4417V14.4397V14.4377V14.4357V14.4336V14.4316V14.4296V14.4276V14.4256V14.4235V14.4215V14.4195V14.4175V14.4154V14.4134V14.4114V14.4094V14.4074V14.4053V14.4033V14.4013V14.3993V14.3972V14.3952V14.3932V14.3912V14.3891V14.3871V14.3851V14.3831V14.381V14.379V14.377V14.375V14.3729V14.3709V14.3689V14.3669V14.3648V14.3628V14.3608V14.3588V14.3567V14.3547V14.3527V14.3506V14.3486V14.3466V14.3446V14.3425V14.3405V14.3385V14.3364V14.3344V14.3324V14.3304V14.3283V14.3263V14.3243V14.3222V14.3202V14.3182V14.3162V14.3141V14.3121V14.3101V14.308V14.306V14.304V14.3019V14.2999V14.2979V14.2958V14.2938V14.2918V14.2897V14.2877V14.2857V14.2836V14.2816V14.2796V14.2775V14.2755V14.2735V14.2714V14.2694V14.2674V14.2653V14.2633V14.2613V14.2592V14.2572V14.2552V14.2531V14.2511V14.2491V14.247V14.245V14.2429V14.2409V14.2389V14.2368V14.2348V14.2328V14.2307V14.2287V14.2266V14.2246V14.2226V14.2205V14.2185V14.2164V14.2144V14.2124V14.2103V14.2083V14.2062V14.2042V14.2022V14.2001V14.1981V14.196V14.194V14.1919V14.1899V14.1879V14.1858V14.1838V14.1817V14.1797V14.1776V14.1756V14.1735V14.1715V14.1695V14.1674V14.1654V14.1633V14.1613V14.1592V14.1572V14.1551V14.1531V14.151V14.149V14.1469V14.1449V14.1428V14.1408V14.1387V14.1367V14.1346V14.1326V14.1305V14.1285V14.1264V14.1244V14.1223V14.1203V14.1182V14.1162V14.1141V14.1121V14.11V14.108V14.1059V14.1039V14.1018V14.0998V14.0977V14.0956V14.0936V14.0915V14.0895V14.0874V14.0854V14.0833V14.0813V14.0792V14.0771V14.0751V14.073V14.071V14.0689V14.0668V14.0648V14.0627V14.0607V14.0586V14.0566V14.0545V14.0524V14.0504V14.0483V14.0462V14.0442V14.0421V14.0401V14.038V14.0359V14.0339V14.0318V14.0297V14.0277V14.0256V14.0235V14.0215V14.0194V14.0173V14.0153V14.0132V14.0111V14.0091V14.007V14.0049V14.0029V14.0008V13.9987V13.9967V13.9946V13.9925V13.9905V13.9884V13.9863V13.9842V13.9822V13.9801V13.978V13.976V13.9739V13.9718V13.9697V13.9677V13.9656V13.9635V13.9614V13.9594V13.9573V13.9552V13.9531V13.9511V13.949V13.9469V13.9448V13.9427V13.9407V13.9386V13.9365V13.9344V13.9323V13.9303V13.9282V13.9261V13.924V13.9219V13.9199V13.9178V13.9157V13.9136V13.9115V13.9094V13.9074V13.9053V13.9032V13.9011V13.899V13.8969V13.8948V13.8928V13.8907V13.8886V13.8865V13.8844V13.8823V13.8802V13.8781V13.876V13.874V13.8719V13.8698V13.8677V13.8656V13.8635V13.8614V13.8593V13.8572V13.8551V13.853V13.8509V13.8488V13.8467V13.8446V13.8425V13.8405V13.8384V13.8363V13.8342V13.8321V13.83V13.8279V13.8258V13.8237V13.8216V13.8195V13.8174V13.8153V13.8132V13.8111V13.809V13.8068V13.8047V13.8026V13.8005V13.7984V13.7963V13.7942V13.7921V13.79V13.7879V13.7858V13.7837V13.7816V13.7795V13.7774V13.7752V13.7731V13.771V13.7689V13.7668V13.7647V13.7626V13.7605V13.7584V13.7562V13.7541V13.752V13.7499V13.7478V13.7457V13.7436V13.7414V13.7393V13.7372V13.7351V13.733V13.7308V13.7287V13.7266V13.7245V13.7224V13.7202V13.7181V13.716V13.7139V13.7118V13.7096V13.7075V13.7054V13.7033V13.7011V13.699V13.6969V13.6948V13.6926V13.6905V13.6884V13.6862V13.6841V13.682V13.6799V13.6777V13.6756V13.6735V13.6713V13.6692V13.6671V13.6649V13.6628V13.6607V13.6585V13.6564V13.6543V13.6521V13.65V13.6479V13.6457V13.6436V13.6414V13.6393V13.6372V13.5837L35.7424 13.5308C35.7188 13.3661 35.6879 13.1966 35.66 13.0435L35.6589 13.0373L35.6573 13.0288L35.6556 13.0203C35.2681 11.1403 34.251 9.67843 32.5798 8.74374M35.75 14.8018L32.5798 8.74374M28.2571 1.78508C28.2577 1.78542 28.2583 1.78575 28.259 1.78609L27.9018 2.44558M28.2571 1.78508C28.2564 1.78472 28.2557 1.78435 28.2551 1.78398L27.9018 2.44558M28.2571 1.78508C28.8871 2.12193 29.3769 2.60126 29.7651 3.13677L29.7673 3.13983C30.0819 3.57855 30.3985 4.01572 30.7162 4.45452L30.7175 4.45632C31.0345 4.89406 31.3527 5.33343 31.6692 5.77483M27.9018 2.44558C28.4114 2.71767 28.8205 3.11149 29.1578 3.57691C29.4736 4.0173 29.7912 4.4559 30.1088 4.8945C30.4264 5.33304 30.744 5.77158 31.0597 6.21191M31.6692 5.77483C31.6692 5.77475 31.6691 5.77467 31.669 5.77459L31.0597 6.21191M31.6692 5.77483L31.0597 6.21191M31.6692 5.77483C32.1293 6.41586 32.5222 7.17987 32.6033 8.08418C32.6033 8.08466 32.6034 8.08515 32.6034 8.08563L31.8564 8.15235C31.7918 7.42916 31.476 6.79189 31.0597 6.21191M25.0884 4.73688C25.0519 4.66059 25.0115 4.59092 24.9676 4.52726L24.995 4.48725L25.0884 4.73688ZM25.0884 4.73688C25.1042 4.73093 25.1213 4.72553 25.1384 4.72007C25.1833 4.70582 25.2295 4.69116 25.2606 4.66528M25.0884 4.73688L25.254 4.65764L25.2606 4.66528M25.2606 4.66528C25.2707 4.65656 25.2815 4.64784 25.2927 4.63911L25.2542 4.65755L25.2606 4.66528ZM6.70048 8.61778C6.83685 8.29556 7.08805 8.17384 7.39667 8.22396C7.69093 8.26692 7.97802 8.36 8.25792 8.47457L6.70048 8.61778ZM6.70048 8.61778C6.6646 8.7037 6.52823 8.78962 6.42775 8.8111L6.70048 8.61778ZM32.5798 8.74374C32.4812 8.68862 32.3804 8.63534 32.2773 8.58391C32.2776 8.58403 32.2746 8.58255 32.2683 8.57874C32.2621 8.57503 32.2549 8.57041 32.2457 8.56432L32.2308 8.55424L32.2095 8.53993L32.2091 8.53968C32.2031 8.53566 32.1844 8.52322 32.1621 8.51018C32.1517 8.50409 32.1257 8.48903 32.0913 8.47333C32.0741 8.46544 32.0432 8.45205 32.0033 8.4395C31.9801 8.43222 31.9286 8.41686 31.8589 8.40926L34.9211 13.1717C34.555 11.396 33.5789 10.0713 31.9425 9.25504C31.8874 9.22754 31.8381 9.19416 31.8079 9.17371C31.7915 9.16255 31.7807 9.15523 31.7777 9.15482L31.9847 9.17048L32.5253 9.21137C32.5339 9.09764 32.5464 9.00187 32.561 8.89088C32.5669 8.84518 32.5733 8.79691 32.5798 8.74374ZM24.9098 4.25951L24.939 4.33771L24.9544 4.37886L24.9946 4.48631L24.9671 4.52647C24.9303 4.47316 24.8911 4.42408 24.8497 4.37886C24.8355 4.36338 24.821 4.34835 24.8064 4.33376C24.8065 4.33212 24.8066 4.33049 24.8067 4.32887C24.811 4.27101 24.8223 4.21959 24.8368 4.17511L24.9098 4.25951ZM24.8987 4.22998L24.8415 4.16116C24.8466 4.14664 24.852 4.13292 24.8576 4.12001L24.8987 4.22998ZM24.9874 3.93275C24.9875 3.93273 24.9865 3.93361 24.9842 3.9354C24.9862 3.93365 24.9874 3.93276 24.9874 3.93275ZM12.7456 17.0692C12.7456 17.0693 12.7446 17.071 12.7425 17.074C12.7445 17.0706 12.7455 17.0691 12.7456 17.0692Z" stroke="#F7F7F7" stroke-width="1.5"/>
</svg>
