<svg width="20" height="20" viewBox="0 0 20 20" fill="none" xmlns="http://www.w3.org/2000/svg">
<path d="M20 9.41406C20 9.80469 20 10.1953 20 10.5859C19.9883 10.6406 19.9727 10.6992 19.9688 10.7539C19.8711 12.1484 19.5039 13.4727 18.8281 14.6953C17.2734 17.5117 14.9102 19.2344 11.7422 19.8438C11.3594 19.918 10.9727 19.9492 10.5859 20C10.1953 20 9.80469 20 9.41406 20C9.36328 19.9883 9.3125 19.9727 9.26172 19.9688C7.85938 19.875 6.53125 19.5039 5.30469 18.8281C2.48828 17.2695 0.761719 14.9062 0.15625 11.7422C0.0820312 11.3594 0.0507812 10.9727 0 10.5859C0 10.1953 0 9.80469 0 9.41406C0.0117188 9.35938 0.0273439 9.30078 0.0312501 9.24609C0.128906 7.85156 0.5 6.52734 1.17188 5.30469C2.72656 2.48828 5.08984 0.761719 8.25781 0.15625C8.64062 0.0820312 9.02734 0.0507812 9.41406 0C9.80469 0 10.1953 0 10.5859 0C10.6367 0.0117188 10.6875 0.0273439 10.7383 0.0312501C12.1406 0.125 13.4688 0.496094 14.6953 1.17188C17.5117 2.72656 19.2383 5.08984 19.8438 8.25781C19.9141 8.64062 19.9492 9.02734 20 9.41406ZM10 18.4375C14.6523 18.4375 18.4297 14.6641 18.4336 10.0078C18.4453 5.35156 14.6562 1.5625 10 1.5625C5.34766 1.5625 1.57031 5.33594 1.56641 9.99219C1.55469 14.6484 5.34375 18.4375 10 18.4375Z" fill="#BE0000"/>
<path d="M8.66877 11.5469C8.71565 11.4727 8.7469 11.3945 8.80158 11.3398C10.2781 9.85937 11.7547 8.38672 13.2313 6.90625C13.4071 6.73047 13.6024 6.59766 13.8602 6.59766C14.1727 6.60156 14.411 6.74219 14.5555 7.01953C14.7 7.29688 14.6766 7.57422 14.4969 7.82812C14.4461 7.90234 14.3797 7.96875 14.3172 8.03125C12.6375 9.71094 10.9578 11.3906 9.27815 13.0703C8.83674 13.5117 8.41487 13.5117 7.97737 13.0703C7.19612 12.2891 6.41096 11.5078 5.62971 10.7227C5.33674 10.4297 5.27033 10.082 5.4383 9.76563C5.69221 9.28125 6.30549 9.19922 6.72346 9.60938C7.3094 10.1836 7.88362 10.7695 8.46174 11.3477C8.51643 11.4023 8.56721 11.4492 8.66877 11.5469Z" fill="#BE0000"/>
</svg>
