<svg width="14" height="14" viewBox="0 0 14 14" fill="none" xmlns="http://www.w3.org/2000/svg">
<path d="M0 11.7893C0 11.7062 0 11.623 0 11.5399C0.0511482 11.461 0.0876826 11.3696 0.149791 11.3072C0.577244 10.8751 0.917015 10.3639 1.19833 9.80293C2.03862 8.14488 2.41858 6.34554 2.45511 4.44231C2.47338 3.44914 2.45877 2.45182 2.45877 1.45865C2.45877 1.1179 2.62317 0.930897 2.92641 0.930897C3.55115 0.930897 4.17589 0.930897 4.80063 0.930897C4.84812 0.930897 4.89562 0.930897 4.95042 0.930897C4.95042 0.768832 4.95042 0.627544 4.95042 0.490412C4.95407 0.203681 5.12944 -0.00409428 5.36691 6.12366e-05C5.59708 0.00421675 5.76879 0.207836 5.77244 0.486256C5.7761 0.631699 5.77244 0.772987 5.77244 0.922585C6.46294 0.922585 7.13883 0.922585 7.82203 0.922585C7.82203 0.781298 7.82203 0.644166 7.82203 0.511189C7.82568 0.207837 7.99374 6.12366e-05 8.23121 6.12366e-05C8.46868 6.12366e-05 8.6404 0.211992 8.6404 0.511189C8.6404 0.648322 8.6404 0.785454 8.6404 0.918431C9.34551 0.918431 10.0287 0.918431 10.7192 0.918431C10.7192 0.764677 10.7192 0.627544 10.7192 0.486256C10.7229 0.207836 10.8946 0.00421675 11.1247 6.12366e-05C11.3586 -0.00409428 11.5376 0.203681 11.5412 0.490412C11.5449 0.635855 11.5412 0.777143 11.5412 0.935053C11.607 0.935053 11.6545 0.935053 11.702 0.935053C12.2975 0.935053 12.8967 0.935053 13.4922 0.935053C13.8502 0.935053 14 1.10127 14 1.50851C14 5.47703 14 9.44971 14 13.4182C14 13.8338 13.8539 14 13.4849 14C9.98121 14 6.47756 14 2.9739 14C2.93737 14 2.90083 14 2.8643 14C2.63779 13.9875 2.46973 13.8005 2.45877 13.5429C2.45512 13.4806 2.45877 13.4182 2.45877 13.3559C2.45877 12.9528 2.45877 12.5497 2.45877 12.1342C2.39666 12.1342 2.34916 12.1342 2.29802 12.1342C1.70981 12.1342 1.12161 12.1259 0.533403 12.1383C0.284969 12.1425 0.10595 12.0511 0 11.7893ZM13.178 4.67502C9.86795 4.67502 6.57255 4.67502 3.27714 4.67502C3.18215 7.05613 2.63779 9.25855 1.35177 11.1992C1.4358 11.1992 1.49061 11.1992 1.54541 11.1992C4.53393 11.1992 7.5261 11.1992 10.5146 11.1992C11.0042 11.1992 11.0078 11.2033 11.3184 10.7629C12.5752 8.9926 13.0684 6.919 13.178 4.67502ZM11.5412 1.87004C11.5412 2.0238 11.5412 2.16093 11.5412 2.30222C11.5376 2.5931 11.3659 2.80088 11.132 2.80088C10.8982 2.80088 10.7229 2.5931 10.7192 2.30637C10.7192 2.16509 10.7192 2.01964 10.7192 1.88251C10.0141 1.88251 9.3309 1.88251 8.6404 1.88251C8.6404 2.03626 8.6404 2.1734 8.6404 2.31468C8.63674 2.60141 8.45772 2.80919 8.2239 2.80504C7.99374 2.80088 7.82568 2.5931 7.82203 2.31468C7.81837 2.16924 7.82203 2.02795 7.82203 1.88251C7.13152 1.88251 6.45564 1.88251 5.77244 1.88251C5.77244 2.02795 5.77244 2.16093 5.77244 2.29391C5.76879 2.5931 5.60073 2.80504 5.3596 2.80504C5.12213 2.80504 4.95407 2.5931 4.95042 2.28975C4.95042 2.15262 4.95042 2.01549 4.95042 1.87835C4.38413 1.87835 3.83977 1.87835 3.29175 1.87835C3.29175 2.50168 3.29175 3.11254 3.29175 3.72756C6.59081 3.72756 9.88257 3.72756 13.1707 3.72756C13.1707 3.10423 13.1707 2.48922 13.1707 1.8742C12.6263 1.87004 12.0929 1.87004 11.5412 1.87004ZM13.1743 9.05078C13.1378 9.13804 13.1159 9.18375 13.0976 9.23362C12.6921 10.2268 12.1915 11.1493 11.4974 11.9181C11.3622 12.0677 11.2124 12.1342 11.0188 12.1342C8.49426 12.13 5.96973 12.13 3.4452 12.13C3.39405 12.13 3.33925 12.13 3.2881 12.13C3.2881 12.45 3.2881 12.7492 3.2881 13.0525C6.58716 13.0525 9.87891 13.0525 13.1743 13.0525C13.1743 11.7269 13.1743 10.4096 13.1743 9.05078Z" fill="#BE0000"/>
</svg>
