<svg width="16" height="16" viewBox="0 0 16 16" fill="none" xmlns="http://www.w3.org/2000/svg">
<path fill-rule="evenodd" clip-rule="evenodd" d="M12 0H4C1.8002 0 0 1.7994 0 4V12C0 14.1998 1.8002 16 4 16H12C14.1998 16 16 14.1998 16 12V4C16 1.7994 14.1998 0 12 0ZM8.00013 11.3334C6.15893 11.3334 4.66673 9.84062 4.66673 8.00022C4.66673 6.15902 6.15893 4.66682 8.00013 4.66682C9.84053 4.66682 11.3335 6.15902 11.3335 8.00022C11.3335 9.84062 9.84053 11.3334 8.00013 11.3334ZM11.3334 3.66682C11.3334 4.21902 11.7806 4.66682 12.3334 4.66682C12.8862 4.66682 13.3334 4.21902 13.3334 3.66682C13.3334 3.11462 12.8862 2.66682 12.3334 2.66682C11.7806 2.66682 11.3334 3.11462 11.3334 3.66682Z" fill="#F7F7F7"/>
</svg>
