<svg width="22" height="20" viewBox="0 0 22 20" fill="none" xmlns="http://www.w3.org/2000/svg">
<path d="M19.0117 3.11982C18.5488 2.64778 17.9991 2.27332 17.3941 2.01784C16.7891 1.76236 16.1406 1.63086 15.4857 1.63086C14.8308 1.63086 14.1823 1.76236 13.5773 2.01784C12.9723 2.27332 12.4226 2.64778 11.9597 3.11982L10.9988 4.09903L10.038 3.11982C9.10284 2.16677 7.83449 1.63135 6.51197 1.63135C5.18944 1.63135 3.92109 2.16677 2.98593 3.11982C2.05076 4.07288 1.52539 5.36549 1.52539 6.71331C1.52539 8.06113 2.05076 9.35374 2.98593 10.3068L3.94675 11.286L10.9988 18.473L18.0509 11.286L19.0117 10.3068C19.4749 9.83497 19.8424 9.27477 20.093 8.65818C20.3437 8.0416 20.4728 7.38072 20.4728 6.71331C20.4728 6.04589 20.3437 5.38502 20.093 4.76843C19.8424 4.15185 19.4749 3.59165 19.0117 3.11982V3.11982Z" stroke="#1D1D1D" stroke-width="2" stroke-linecap="round" stroke-linejoin="round"/>
</svg>
