<svg width="18" height="14" viewBox="0 0 18 14" fill="none" xmlns="http://www.w3.org/2000/svg">
<path d="M0.111328 11.8686C0.111328 8.62013 0.111328 5.37625 0.111328 2.12775C0.120557 2.1139 0.129786 2.09545 0.1344 2.0816C0.383575 1.17258 0.900382 0.780357 1.84632 0.780357C5.6024 0.780357 9.3631 0.780357 13.1192 0.780357C14.1666 0.780357 15.2187 0.771129 16.2662 0.784972C16.926 0.7942 17.4059 1.11259 17.6874 1.70784C17.752 1.84166 17.7797 1.98932 17.8258 2.13236C17.8258 5.38086 17.8258 8.62475 17.8258 11.8732C17.8166 11.8871 17.8074 11.9055 17.8027 11.9194C17.572 12.8007 17.0321 13.2206 16.1231 13.2206C12.2286 13.2206 8.32948 13.2206 4.43497 13.2206C3.5121 13.2206 2.58923 13.2252 1.66636 13.216C1.07111 13.2114 0.609678 12.9438 0.314359 12.4316C0.226687 12.2562 0.180543 12.0578 0.111328 11.8686ZM1.95245 1.8232C1.94322 1.83704 1.93861 1.85089 1.92938 1.86473C1.97091 1.89703 2.01705 1.92472 2.05397 1.96163C4.19041 4.10269 6.33147 6.23913 8.46791 8.38019C8.8186 8.73088 9.13238 8.73088 9.47845 8.38019C11.6195 6.23451 13.7606 4.09346 15.9016 1.94779C15.9339 1.91549 15.9662 1.87396 16.017 1.8232C11.3103 1.8232 6.6314 1.8232 1.95245 1.8232ZM1.91554 12.1639C6.63602 12.1639 11.315 12.1639 16.0308 12.1639C14.5312 10.6827 13.0592 9.22461 11.578 7.75725C11.5457 7.78955 11.4995 7.83108 11.4534 7.87722C11.0196 8.31097 10.5905 8.74472 10.1568 9.17385C9.47845 9.84755 8.46791 9.84755 7.7896 9.17385C7.52658 8.91545 7.26818 8.65243 7.00978 8.38941C6.7929 8.17254 6.58064 7.96028 6.373 7.75725C4.88718 9.22461 3.4152 10.6827 1.91554 12.1639ZM1.15878 2.59841C1.15878 5.51929 1.15878 8.47247 1.15878 11.3887C2.63076 9.93522 4.11197 8.46786 5.6024 6.99588C4.11658 5.52391 2.63538 4.05654 1.15878 2.59841ZM16.783 11.3887C16.783 8.47247 16.783 5.5239 16.783 2.60302C15.311 4.05654 13.8298 5.52391 12.3393 6.99588C13.8298 8.46786 15.311 9.93522 16.783 11.3887Z" fill="#F7F7F7"/>
</svg>
