<svg width="30" height="21" viewBox="0 0 30 21" fill="none" xmlns="http://www.w3.org/2000/svg">
<path d="M0 6.87029C0.111126 6.61962 0.319487 6.52214 0.569521 6.46644C5.69521 5.40809 10.8209 4.34975 15.9605 3.27748C20.3499 2.37232 24.7394 1.45323 29.1428 0.548066C29.2122 0.534141 29.2956 0.520214 29.3789 0.506289C29.8651 0.450587 30.1151 0.770875 29.9484 1.23042C29.4345 2.6369 28.9205 4.04339 28.4066 5.43595C26.6286 10.2542 24.8644 15.0864 23.0864 19.9046C23.0586 20.0021 23.017 20.0857 22.9753 20.1831C22.8086 20.5034 22.5169 20.587 22.2113 20.406C21.989 20.2667 21.7668 20.1135 21.5445 19.9743C19.9193 18.9159 18.2802 17.8576 16.6689 16.7853C16.5022 16.6739 16.405 16.6739 16.2383 16.7853C14.4742 17.9829 12.6961 19.1527 10.932 20.3363C10.4458 20.6566 10.1125 20.4756 10.0291 19.9046C9.84854 18.7627 9.64018 17.6348 9.43182 16.4929C9.16789 15.0168 8.89008 13.5546 8.64004 12.0785C8.59837 11.8835 8.51503 11.7721 8.34834 11.6885C5.73688 10.3099 3.11153 8.93127 0.513958 7.53871C0.333378 7.44123 0.18058 7.27413 0.0277815 7.1488C3.93278e-08 7.06524 0 6.96776 0 6.87029ZM22.253 19.2641C24.3088 13.652 26.3646 8.06788 28.4205 2.48372C28.4066 2.4698 28.3788 2.4698 28.3649 2.45587C23.3781 6.13223 18.4052 9.79466 13.3907 13.4849C16.3633 15.4206 19.2804 17.3284 22.253 19.2641ZM25.7812 2.34447C25.7812 2.31662 25.7812 2.30269 25.7673 2.27484C17.8635 3.91806 9.95966 5.56128 1.98638 7.2045C2.13917 7.30198 2.22252 7.34375 2.30586 7.38553C4.44504 8.5135 6.58421 9.64147 8.72339 10.7834C8.94564 10.9087 9.11233 10.8948 9.33458 10.7834C13.6407 8.5692 17.9468 6.35504 22.2391 4.14087C23.4198 3.55599 24.6005 2.95719 25.7812 2.34447ZM10.6403 17.7044C10.6681 17.7044 10.682 17.7044 10.7098 17.7044C11.1265 16.3536 11.5432 15.0168 11.946 13.666C12.0433 13.3457 12.1961 13.1229 12.46 12.9279C16.1966 10.1846 19.9193 7.44123 23.642 4.68397C23.7254 4.62826 23.7948 4.55863 23.8782 4.50293C23.7948 4.48901 23.7393 4.51686 23.6698 4.54471C19.0442 6.92599 14.4186 9.29334 9.79298 11.6607C9.57072 11.7721 9.58461 11.8974 9.6124 12.0785C9.84854 13.3457 10.0708 14.6129 10.293 15.8941C10.4181 16.5068 10.5292 17.1056 10.6403 17.7044ZM12.8073 14.3065C12.3489 15.8105 11.9183 17.2727 11.4738 18.721C11.4876 18.7349 11.5154 18.7488 11.5293 18.7488C12.8489 17.8576 14.1686 16.9803 15.5299 16.0751C14.5992 15.4763 13.7241 14.9053 12.8073 14.3065Z" fill="#F7F7F7"/>
</svg>
