<svg width="22" height="21" viewBox="0 0 22 21" fill="none" xmlns="http://www.w3.org/2000/svg">
<path d="M7.00336 0.75L7.08838 0.770074C7.4657 0.859173 7.93809 1.0207 8.3202 1.42152L8.32426 1.42579L8.32425 1.4258C8.71619 1.84346 8.92003 2.35285 8.93716 2.91726L8.93717 2.91777C8.95992 3.68496 9.02189 4.41052 9.19174 5.11045L9.19275 5.11464L9.19274 5.11464C9.22652 5.25742 9.26746 5.40295 9.31363 5.56662L9.31555 5.57344C9.3595 5.72923 9.40831 5.90227 9.44997 6.07801C9.6277 6.8096 9.43248 7.46667 9.00845 8.01259C8.58717 8.55582 8.16936 9.10814 7.75458 9.66325C8.57936 11.1147 9.62756 12.3282 11.0085 13.2212C11.2322 13.3656 11.4443 13.493 11.6672 13.6268C11.7229 13.6603 11.7793 13.6941 11.8367 13.7288C12.4118 13.2878 12.99 12.8515 13.5675 12.4201C14.1182 12.0057 14.7588 11.9052 15.3857 12.0488C15.6018 12.0979 15.8196 12.1554 16.0229 12.209C16.0764 12.2232 16.129 12.237 16.1802 12.2504C16.4342 12.3167 16.6692 12.3747 16.9016 12.416C17.383 12.4998 17.8572 12.5568 18.3066 12.5568C18.8211 12.5568 19.3582 12.6675 19.8151 12.9834C20.2864 13.3094 20.5984 13.8032 20.733 14.424L20.75 14.5026V14.5829V14.5901V14.5972V14.6043V14.6115V14.6186V14.6257V14.6329V14.64V14.6471V14.6543V14.6614V14.6685V14.6757V14.6828V14.6899V14.6971V14.7042V14.7113V14.7185V14.7256V14.7327V14.7399V14.747V14.7541V14.7613V14.7684V14.7755V14.7827V14.7898V14.797V14.8041V14.8112V14.8184V14.8255V14.8326V14.8398V14.8469V14.854V14.8612V14.8683V14.8754V14.8826V14.8897V14.8968V14.904V14.9111V14.9182V14.9254V14.9325V14.9396V14.9468V14.9539V14.961V14.9682V14.9753V14.9824V14.9896V14.9967V15.0038V15.011V15.0181V15.0252V15.0324V15.0395V15.0466V15.0538V15.0609V15.068V15.0752V15.0823V15.0895V15.0966V15.1037V15.1109V15.118V15.1251V15.1323V15.1394V15.1465V15.1537V15.1608V15.1679V15.1751V15.1822V15.1893V15.1965V15.2036V15.2107V15.2179V15.225V15.2321V15.2393V15.2464V15.2535V15.2607V15.2678V15.2749V15.2821V15.2892V15.2963V15.3035V15.3106V15.3177V15.3249V15.332V15.3391V15.3463V15.3534V15.3605V15.3677V15.3748V15.382V15.3891V15.3962V15.4034V15.4105V15.4176V15.4248V15.4319V15.439V15.4462V15.4533V15.4604V15.4676V15.4747V15.4818V15.489V15.4961V15.5032V15.5104V15.5175V15.5246V15.5318V15.5389V15.546V15.5532V15.5603V15.5674V15.5746V15.5817V15.5888V15.596V15.6031V15.6102V15.6174V15.6245V15.6316V15.6388V15.6459V15.653V15.6602V15.6673V15.6745V15.6816V15.6887V15.6959V15.703V15.7101V15.7173V15.7244V15.7315V15.7387V15.7458V15.7529V15.7601V15.7672V15.7743V15.7815V15.7886V15.7957V15.8029V15.81V15.8171V15.8243V15.8314V15.8385V15.8457V15.8528V15.8599V15.8671V15.8742V15.8813V15.8885V15.8956V15.9027V15.9099V15.917V15.9241V15.9313V15.9384V15.9455V15.9527V15.9598V15.967V15.9741V15.9812V15.9884V15.9955V16.0026V16.0098V16.0169V16.024V16.0312V16.0383V16.0454V16.0526V16.0597V16.0668V16.074V16.0811V16.0882V16.0954V16.1025V16.1096V16.1168V16.1239V16.131V16.1382V16.1453V16.1524V16.1596V16.1667V16.1738V16.181V16.1881V16.1952V16.2024V16.2095V16.2166V16.2238V16.2309V16.238V16.2452V16.2523V16.2595V16.2666V16.2737V16.2809V16.288V16.2951V16.3023V16.3094V16.3165V16.3237V16.3308V16.3379V16.3451V16.3522V16.3593V16.3665V16.3736V16.3807V16.3879V16.395V16.4021V16.4093V16.4164V16.4235V16.4307V16.4378V16.4449V16.4521V16.4592V16.4663V16.4735V16.4806V16.4877V16.4949V16.502V16.5091V16.5163V16.5234V16.5305V16.5377V16.5448V16.552V16.5591V16.5662V16.5734V16.5805V16.5876V16.5948V16.6019V16.609V16.6162V16.6233V16.6304V16.6376V16.6447V16.6518V16.659V16.6661V16.6732V16.6804V16.6875V16.6946V16.7018V16.7089V16.716V16.7232V16.7303V16.7374V16.7446V16.7517V16.7588V16.766V16.7731V16.7802V16.7874V16.7945V16.8016V16.8088V16.8159V16.823V16.8302V16.8373V16.8445V16.8516V16.8587V16.8659V16.873V16.8801V16.8873V16.8944V16.9015V16.9087V16.9158V16.9229V16.9301V16.9372V16.9443V16.9515V16.9586V16.9657V16.9729V16.98V16.9871V16.9943V17.0014V17.0085V17.0157V17.0228V17.0299V17.0371V17.0442V17.0513V17.0585V17.0656V17.0727V17.0799V17.087V17.0941V17.1013V17.1084V17.1155V17.1227V17.1298V17.137V17.1441V17.1512V17.1584V17.1655V17.1726V17.1798V17.1869V17.194V17.2012V17.2083V17.2154V17.2226V17.2297V17.2368V17.244V17.2511V17.2582V17.2654V17.2725V17.2796V17.2868V17.2939V17.301V17.3082V17.3153V17.3224V17.3296V17.3367V17.3438V17.351V17.3581V17.3652V17.3724V17.3795V17.3866V17.3938V17.4009V17.408V17.4152V17.4223V17.4295V17.4366V17.4437V17.4509V17.458V17.4651V17.4723V17.4794V17.4865V17.4937V17.5008V17.5079V17.5151V17.5222V17.5293V17.5365V17.5436V17.5507V17.5579V17.565V17.5721V17.5793V17.5864V17.5935V17.6007V17.6078V17.6149V17.6221V17.6292V17.6363V17.6435V17.6506V17.6577V17.6649V17.672V17.6791V17.6863V17.6934V17.7005V17.7077V17.7148V17.722V17.7291V17.7362V17.7434V17.7505V17.7576V17.7648V17.7719V17.779V17.7862V17.7933V17.8004V17.8076V17.8147V17.8218V17.829V17.8361V17.8432V17.8504V17.8575V17.8646V17.8718V17.8789V17.886V17.8932V17.9003V17.9074V17.9146V17.9217V17.9288V17.936V17.9431V17.9502V17.9574V17.9645V17.9716V17.9788V17.9859V17.993V18.0002V18.0073V18.0145V18.0216V18.0287V18.0359V18.043V18.0501V18.0573V18.0644V18.0715V18.0787V18.0858V18.0929V18.1001V18.1072V18.1143V18.1215V18.1286V18.1357V18.1429V18.15V18.1571V18.1643V18.1714V18.1785V18.1857V18.1928V18.1999V18.2071V18.2142V18.2213V18.2285V18.2356V18.3921L20.6874 18.5355C20.6602 18.5979 20.64 18.65 20.6151 18.7139C20.5981 18.7576 20.579 18.8068 20.554 18.8686C20.5019 18.9975 20.4323 19.1588 20.3351 19.3177L20.3313 19.3239L20.3274 19.33C19.9479 19.9244 19.3443 20.1306 18.9004 20.2314L18.8184 20.25H18.7344H18.7327H18.7309H18.7292H18.7275H18.7258H18.7241H18.7224H18.7206H18.7189H18.7172H18.7155H18.7138H18.7121H18.7103H18.7086H18.7069H18.7052H18.7035H18.7018H18.7H18.6983H18.6966H18.6949H18.6932H18.6915H18.6897H18.688H18.6863H18.6846H18.6829H18.6812H18.6794H18.6777H18.676H18.6743H18.6726H18.6709H18.6691H18.6674H18.6657H18.664H18.6623H18.6606H18.6588H18.6571H18.6554H18.6537H18.652H18.6503H18.6485H18.6468H18.6451H18.6434H18.6417H18.64H18.6382H18.6365H18.6348H18.6331H18.6314H18.6297H18.6279H18.6262H18.6245H18.6228H18.6211H18.6194H18.6176H18.6159H18.6142H18.6125H18.6108H18.6091H18.6073H18.6056H18.6039H18.6022H18.6005H18.5988H18.597H18.5953H18.5936H18.5919H18.5902H18.5885H18.5867H18.585H18.5833H18.5816H18.5799H18.5782H18.5764H18.5747H18.573H18.5713H18.5696H18.5679H18.5661H18.5644H18.5627H18.561H18.5593H18.5576H18.5558H18.5541H18.5524H18.5507H18.549H18.5473H18.5455H18.5438H18.5421H18.5404H18.5387H18.537H18.5352H18.5335H18.5318H18.5301H18.5284H18.5267H18.5249H18.5232H18.5215H18.5198H18.5181H18.5164H18.5146H18.5129H18.5112H18.5095H18.5078H18.5061H18.5043H18.5026H18.5009H18.4992H18.4975H18.4958H18.494H18.4923H18.4906H18.4889H18.4872H18.4855H18.4837H18.482H18.4803H18.4786H18.4769H18.4752H18.4734H18.4717H18.47H18.4683H18.4666H18.4649H18.4632H18.4614H18.4597H18.458H18.4563H18.4546H18.4529H18.4511H18.4494H18.4477H18.446H18.4443H18.4426H18.4408H18.4391H18.4374H18.4357H18.434H18.4323H18.4305H18.4288H18.4271H18.4254H18.4237H18.422H18.4202H18.4185H18.4168H18.4151H18.4134H18.4117H18.4099H18.4082H18.4065H18.4048H18.4031H18.4014H18.3996H18.3979H18.3962H18.3945H18.3928H18.3911H18.3893H18.3876H18.3859H18.3842H18.3825H18.3808H18.379H18.3773H18.3756H18.3739H18.3722H18.3705H18.3687H18.367H18.3653H18.3636H18.3619H18.3602H18.3584H18.3567H18.355H18.3533H18.3516H18.3499H18.3481H18.3464H18.3447H18.343H18.3413H18.3396H18.3378H18.3361H18.3344H18.3327H18.331H18.3293H18.3275H18.3258H18.3241H18.3224H18.3207H18.319H18.3172H18.3155H18.3138H18.3121H18.3104H18.3087H18.3069H18.3052H18.3035H18.3018H18.3001H18.2984H18.2966H18.2949H18.2932H18.2915H18.2898H18.2881H18.2863H18.2846H18.2829H18.2812H18.2795H18.2778H18.276H18.2743H18.2726H18.2709H18.2692H18.2675H18.2657H18.264H18.2623H18.2606H18.2589H18.2572H18.2554H18.2537H18.252H18.2503H18.2486H18.2469H18.2451H18.2434H18.2417H18.24H18.2383H18.2366H18.2348H18.2331H18.2314H18.2297H18.228H18.2263H18.2245H18.2228H18.2211H18.2194H18.2177H18.216H18.2142H18.2125H18.2108H18.2091H18.2074H18.2057H18.2039H18.2022H18.2005H18.1988H18.1971H18.1954H18.1936H18.1919H18.1902H18.1885H18.1868H18.1851H18.1833H18.1816H18.1799H18.1782H18.1765H18.1748H18.173H18.1713H18.1696H18.1679H18.1662H18.1645H18.1627H18.161H18.1593H18.1576H18.1559H18.1542H18.1524H18.1507H18.149H18.1473H18.1456H18.1439H18.1421H18.1404H18.1387H18.137H18.1353H18.1336H18.1318H18.1301H18.1284H18.1267H18.125H18.1233H18.1215H18.1198H18.1181H18.1164H18.1147H18.113H18.1112H18.1095H18.1078H18.1061H18.1044H18.1027H18.1009H18.0992H18.0975H18.0958H18.0941H18.0924H18.0906H18.0889H18.0872H18.0855H18.0838H18.0821H18.0803H18.0786H18.0769H18.0752H18.0735H18.0718H18.07H18.0683H18.0666H18.0649H18.0632H18.0615H18.0597H18.058H18.0563H18.0546H18.0529H18.0512H18.0494H18.0477H18.046H18.0443H18.0426H18.0409H18.0391H18.0374H18.0357H18.034H18.0323H18.0306H18.0288H18.0271H18.0254H18.0237H18.022H18.0203H18.0185H18.0168H18.0151H18.0134H18.0117H18.01H18.0082H18.0065H18.0048H18.0031H18.0014H17.9997H17.9979H17.9962H17.9945H17.9928H17.9911H17.9894H17.9876H17.9859H17.9842H17.9825H17.9808H17.9791H17.9773H17.9756H17.9739H17.9722H17.9705H17.9688H17.967H17.9653H17.9636H17.9619H17.9602H17.9585H17.9567H17.955H17.9533H17.9516H17.9499H17.9482H17.9464H17.9447H17.943H17.9413H17.9396H17.9379H17.9361H17.9344H17.9327H17.931H17.9293H17.9276H17.9258H17.9241H17.9224H17.9207H17.919H17.9173H17.9155H17.9138H17.9121H17.9104H17.9087H17.907H17.9052H17.9035H17.9018H17.9001H17.8984H17.8967H17.8949H17.8932H17.8915H17.8898H17.8881H17.8864H17.8847H17.8829H17.8812H17.8795H17.8778H17.8761H17.8744H17.8726H17.8709H17.8692H17.8675H17.8658H17.8641H17.8623H17.8606H17.8589H17.8572H17.8555H17.7813L17.7085 20.2355C17.7021 20.2342 17.6913 20.2324 17.673 20.23C17.6574 20.228 17.6431 20.2264 17.6228 20.2242C17.6167 20.2235 17.6101 20.2228 17.6028 20.222L17.5984 20.2215C17.3993 20.1982 17.1841 20.1771 16.961 20.1552C16.5219 20.1121 16.0521 20.066 15.6134 19.9943M7.00336 0.75L15.7344 19.2541M7.00336 0.75H6.91602M7.00336 0.75H6.91602M15.6134 19.9943L15.7344 19.2541M15.6134 19.9943C15.6136 19.9944 15.6137 19.9944 15.6139 19.9944L15.7344 19.2541M15.6134 19.9943C13.7273 19.6874 11.9473 19.0613 10.2758 18.1438L10.2744 18.143C7.64 16.6897 5.50057 14.6879 3.89663 12.1377M15.7344 19.2541C13.9355 18.9615 12.2363 18.3644 10.6367 17.4863C8.11133 16.0932 6.06641 14.179 4.53125 11.738M3.89663 12.1377C3.89679 12.138 3.89695 12.1382 3.8971 12.1385L4.53125 11.738M3.89663 12.1377C3.89654 12.1376 3.89646 12.1375 3.89637 12.1373L4.53125 11.738M3.89663 12.1377C2.49351 9.91552 1.65385 7.48921 1.36019 4.88552L1.35992 4.88309L1.35992 4.88309C1.33215 4.62941 1.30891 4.3656 1.28661 4.11238C1.27542 3.98531 1.26446 3.8609 1.25328 3.74178L1.25 3.70682V3.67171V3.66999V3.66828V3.66656V3.66485V3.66313V3.66142V3.6597V3.65799V3.65627V3.65456V3.65284V3.65113V3.64941V3.6477V3.64598V3.64427V3.64255V3.64084V3.63912V3.63741V3.63569V3.63398V3.63226V3.63055V3.62883V3.62712V3.6254V3.62369V3.62197V3.62026V3.61854V3.61683V3.61511V3.6134V3.61168V3.60997V3.60825V3.60654V3.60483V3.60311V3.6014V3.59968V3.59797V3.59625V3.59454V3.59282V3.59111V3.58939V3.58768V3.58596V3.58425V3.58253V3.58082V3.5791V3.57739V3.57567V3.57396V3.57224V3.57053V3.56881V3.5671V3.56538V3.56367V3.56195V3.56024V3.55852V3.55681V3.55509V3.55338V3.55166V3.54995V3.54823V3.54652V3.5448V3.54309V3.54137V3.53966V3.53794V3.53623V3.53451V3.5328V3.53108V3.52937V3.52765V3.52594V3.52422V3.52251V3.52079V3.51908V3.51736V3.51565V3.51393V3.51222V3.5105V3.50879V3.50707V3.50536V3.50364V3.50193V3.50021V3.4985V3.49678V3.49507V3.49335V3.49164V3.48992V3.48821V3.48649V3.48478V3.48306V3.48135V3.47963V3.47792V3.4762V3.47449V3.47277V3.47106V3.46934V3.46763V3.46591V3.4642V3.46249V3.46077V3.45906V3.45734V3.45563V3.45391V3.4522V3.45048V3.44877V3.44705V3.44534V3.44362V3.44191V3.44019V3.43848V3.43676V3.43505V3.43333V3.43162V3.4299V3.42819V3.42647V3.42476V3.42304V3.42133V3.41961V3.4179V3.41618V3.41447V3.41275V3.41104V3.40932V3.40761V3.40589V3.40418V3.40246V3.40075V3.39903V3.39732V3.3956V3.39389V3.39217V3.39046V3.38874V3.38703V3.38531V3.3836V3.38188V3.38017V3.37845V3.37674V3.37502V3.37331V3.37159V3.36988V3.36816V3.36645V3.36473V3.36302V3.3613V3.35959V3.35787V3.35616V3.35444V3.35273V3.35101V3.3493V3.34758V3.34587V3.34415V3.34244V3.34072V3.33901V3.33729V3.33558V3.33386V3.33215V3.33043V3.32872V3.327V3.32529V3.32358V3.32186V3.32015V3.31843V3.31672V3.315V3.31329V3.31157V3.30986V3.30814V3.30643V3.30471V3.303V3.30128V3.29957V3.29785V3.29614V3.29442V3.29271V3.29099V3.28928V3.28756V3.28585V3.28413V3.28242V3.2807V3.27899V3.27727V3.27556V3.27384V3.27213V3.27041V3.2687V3.26698V3.26527V3.26355V3.26184V3.26012V3.25841V3.25669V3.25498V3.25326V3.25155V3.24983V3.24812V3.2464V3.24469V3.24297V3.24126V3.23954V3.23783V3.23611V3.2344V3.23268V3.23097V3.22925V3.22754V3.22582V3.22411V3.22239V3.22068V3.21896V3.21725V3.21553V3.21382V3.2121V3.21039V3.20867V3.20696V3.20524V3.20353V3.20181V3.2001V3.19838V3.19667V3.19495V3.19324V3.19152V3.18981V3.18809V3.18638V3.18466V3.18295V3.18124V3.17952V3.17781V3.17609V3.17438V3.17266V3.17095V3.16923V3.16752V3.1658V3.16409V3.16237V3.16066V3.15894V3.15723V3.15551V3.1538V3.15208V3.15037V3.14865V3.14694V3.14522V3.14351V3.14179V3.14008V3.13836V3.13665V3.13493V3.13322V3.1315V3.12979V3.12807V3.12636V3.12464V3.12293V3.12121V3.1195V3.11778V3.11607V3.11435V3.11264V3.11092V3.10921V3.10749V3.10578V3.10406V3.10235V3.10063V3.09892V3.0972V3.09549V3.09377V3.09206V3.09034V3.08863V3.08691V3.0852V3.08348V3.08177V3.08005V3.07834V3.07662V3.07491V3.07319V3.07148V3.06976V3.06805V3.06633V3.06462V3.0629V3.06119V3.05947V3.05776V3.05604V3.05433V3.05261V3.0509V3.04918V3.04747V3.04575V3.04404V3.04233V3.04061V3.0389V3.03718V3.03547V3.03375V3.03204V3.03032V3.02861V3.02689V3.02518V3.02346V3.02175V3.02003V3.01832V3.0166V3.01489V3.01317V3.01146V3.00974V3.00803V3.00631V3.0046V3.00288V3.00117V2.99945V2.99774V2.99602V2.99431V2.99259V2.99088V2.98916V2.98745V2.98573V2.98402V2.9823V2.98059V2.97887V2.97716V2.97544V2.97373V2.97201V2.9703V2.96858V2.96687V2.96515V2.96344V2.96172V2.96001V2.95829V2.95658V2.95486V2.95315V2.95143V2.94972V2.948V2.94629V2.94457V2.94286V2.94114V2.93943V2.93771V2.936V2.93428V2.93257V2.93085V2.92914V2.92742V2.92571V2.92399V2.92228V2.92056V2.91885V2.91713V2.91542V2.9137V2.91199V2.91027V2.90856V2.90684V2.90513V2.90341V2.9017V2.89999V2.89827V2.89656V2.89484V2.89313V2.89141V2.8897V2.88798V2.88627V2.88455V2.88284V2.88112V2.87941V2.87769V2.87598V2.87426V2.87255V2.87083V2.86912V2.8674V2.86569V2.86397V2.86226V2.86054V2.85883V2.85711V2.8554V2.85368V2.85197V2.85025V2.84854V2.84682V2.84511V2.84339V2.84168V2.83996V2.83825V2.83653V2.83482V2.8331V2.83139V2.82967V2.82796V2.82624V2.82453V2.82281V2.8211V2.81938V2.81767V2.81595V2.81424V2.81252V2.81081V2.80909V2.80738V2.80566V2.80395V2.80223V2.80052V2.7988V2.79709V2.79537V2.79366V2.63716L1.31259 2.49372C1.33979 2.43137 1.35816 2.38427 1.38053 2.32688C1.39837 2.28111 1.41877 2.2288 1.44823 2.15699C1.50216 2.02556 1.5749 1.86127 1.67843 1.69929L2.10547 4.80146M4.53125 11.738C3.18945 9.61317 2.38672 7.29512 2.10547 4.80146M2.10547 4.80146C2.0785 4.55516 2.0566 4.30633 2.03477 4.0583C2.0234 3.92906 2.01204 3.80004 2 3.67171L2.10547 4.80146ZM6.91602 0.75H6.9115C5.69577 0.75 4.46947 0.75 3.24753 0.779487L3.17137 0.781324M6.91602 0.75L3.17137 0.781324M3.17137 0.781324L3.09714 0.798439M3.17137 0.781324L3.09714 0.798439M3.09714 0.798439C2.65981 0.899261 2.05765 1.10577 1.6787 1.69886L3.09714 0.798439Z" stroke="#F7F7F7" stroke-width="1.5"/>
</svg>
