<svg width="18" height="14" viewBox="0 0 18 14" fill="none" xmlns="http://www.w3.org/2000/svg">
<path d="M16.1507 3.48904C16.1626 3.64253 16.1626 3.79514 16.1626 3.94775C16.1626 8.61822 12.4503 14 5.66599 14C3.57582 14 1.63403 13.4202 0 12.4134C0.296764 12.4458 0.582536 12.4572 0.891207 12.4572C2.61592 12.4572 4.20324 11.8994 5.47181 10.9478C3.84968 10.9153 2.49043 9.89788 2.02147 8.49806C2.24954 8.53051 2.47853 8.55244 2.7185 8.55244C3.04916 8.55244 3.38164 8.50858 3.69031 8.43228C1.99857 8.10425 0.731834 6.6825 0.731834 4.96517V4.92131C1.22369 5.18356 1.79432 5.34758 2.39884 5.3695C1.40505 4.73625 0.753816 3.65305 0.753816 2.42777C0.753816 1.77171 0.936088 1.17003 1.25575 0.645533C3.07205 2.78825 5.80246 4.18895 8.86353 4.34244C8.80674 4.07931 8.77193 3.80654 8.77193 3.53289C8.77193 1.58577 10.417 0 12.4613 0C13.5238 0 14.4828 0.426262 15.1569 1.11565C15.9904 0.96216 16.7891 0.666583 17.4981 0.262248C17.2242 1.08232 16.6407 1.77171 15.8759 2.20937C16.6188 2.13219 17.3387 1.93572 18 1.66207C17.4981 2.36198 16.8706 2.98559 16.1507 3.48904Z" fill="#F7F7F7"/>
</svg>
