<svg width="15" height="16" viewBox="0 0 15 16" fill="none" xmlns="http://www.w3.org/2000/svg">
<path d="M7.07239 1.02556C4.95335 1.23735 3.40556 3.05218 3.62171 5.06053C3.84944 7.17478 5.90672 8.67192 8.12612 8.33233C9.92094 8.05481 11.2487 6.67087 11.3954 4.92542C11.5305 3.28222 10.3996 1.7011 8.70123 1.18623L7.07239 1.02556ZM7.07239 1.02556C7.10649 1.02234 7.13758 1.01341 7.17098 1.00382M7.07239 1.02556L7.17098 1.00382M7.17098 1.00382C7.17539 1.00255 7.17983 1.00128 7.18432 1L7.17098 1.00382ZM7.83804 0.902167L7.8278 0.9H7.81733H7.18432H7.17041L7.15702 0.903799C7.15243 0.905102 7.14806 0.906351 7.14387 0.907546C7.1091 0.917477 7.08729 0.923705 7.06297 0.926004L7.06244 0.926057C4.89294 1.14289 3.29969 3.00301 3.52228 5.07123L3.52229 5.07124C3.75667 7.24732 5.87081 8.77858 8.14124 8.43118L8.1414 8.43115C9.97946 8.14695 11.3443 6.72763 11.495 4.9338L11.495 4.93362C11.6344 3.23913 10.4694 1.61785 8.73041 1.09058C8.53537 1.03075 8.32645 0.993094 8.12528 0.956834C8.02683 0.939088 7.93024 0.921678 7.83804 0.902167ZM7.50447 1.9216H7.50469C9.12595 1.9216 10.4345 3.17082 10.4308 4.69148V4.69172C10.4308 6.21585 9.11098 7.46528 7.48583 7.4582L7.48561 7.4582C5.86842 7.45466 4.5633 6.20205 4.56701 4.68101C4.57072 3.16389 5.88311 1.91806 7.50447 1.9216ZM7.48539 7.5582C9.16055 7.5655 10.5308 6.2765 10.5308 4.69172L7.50469 1.8216C5.83339 1.81795 4.47087 3.1033 4.46701 4.68077C4.46315 6.26189 5.81795 7.55455 7.48539 7.5582Z" fill="#BE0000" stroke="#AAAAAA" stroke-width="0.2"/>
<path d="M0.900075 14.4834L0.900079 14.483C0.939468 11.8708 2.96654 9.63138 5.68503 9.18233L5.68532 9.18228C5.9599 9.13775 6.23879 9.11171 6.51808 9.10797L6.51789 9.10798L6.51961 9.20796L6.51828 9.10797L0.900075 14.4834ZM0.900075 14.4834C0.898016 14.6762 0.93863 14.8379 1.05534 14.9483C1.17043 15.0572 1.33822 15.0957 1.54044 15.0957H1.55205H1.56365H1.57525H1.58685H1.59845H1.61006H1.62166H1.63326H1.64487H1.65647H1.66807H1.67967H1.69128H1.70288H1.71448H1.72609H1.73769H1.74929H1.7609H1.7725H1.78411H1.79571H1.80731H1.81892H1.83052H1.84213H1.85373H1.86534H1.87694H1.88854H1.90015H1.91175H1.92336H1.93496H1.94657H1.95817H1.96978H1.98138H1.99299H2.0046H2.0162H2.02781H2.03941H2.05102H2.06262H2.07423H2.08584H2.09744H2.10905H2.12065H2.13226H2.14387H2.15547H2.16708H2.17869H2.19029H2.2019H2.21351H2.22511H2.23672H2.24833H2.25993H2.27154H2.28315H2.29476H2.30636H2.31797H2.32958H2.34119H2.3528H2.3644H2.37601H2.38762H2.39923H2.41084H2.42244H2.43405H2.44566H2.45727H2.46888H2.48049H2.49209H2.5037H2.51531H2.52692H2.53853H2.55014H2.56175H2.57336H2.58497H2.59658H2.60819H2.61979H2.6314H2.64301H2.65462H2.66623H2.67784H2.68945H2.70106H2.71267H2.72428H2.73589H2.7475H2.75911H2.77073H2.78234H2.79395H2.80556H2.81717H2.82878H2.84039H2.852H2.86361H2.87522H2.88683H2.89844H2.91006H2.92167H2.93328H2.94489H2.9565H2.96811H2.97972H2.99134H3.00295H3.01456H3.02617H3.03778H3.0494H3.06101H3.07262H3.08423H3.09584H3.10746H3.11907H3.13068H3.14229H3.15391H3.16552H3.17713H3.18875H3.20036H3.21197H3.22358H3.2352H3.24681H3.25842H3.27004H3.28165H3.29326H3.30488H3.31649H3.3281H3.33972H3.35133H3.36295H3.37456H3.38617H3.39779H3.4094H3.42102H3.43263H3.44424H3.45586H3.46747H3.47909H3.4907H3.50232H3.51393H3.52555H3.53716H3.54877H3.56039H3.572H3.58362H3.59523H3.60685H3.61846H3.63008H3.6417H3.65331H3.66493H3.67654H3.68816H3.69977H3.71139H3.723H3.73462H3.74623H3.75785H3.76947H3.78108H3.7927H3.80431H3.81593H3.82755H3.83916H3.85078H3.86239H3.87401H3.88563H3.89724H3.90886H3.92048H3.93209H3.94371H3.95533H3.96694H3.97856H3.99018H4.00179H4.01341H4.02503H4.03664H4.04826H4.05988H4.0715H4.08311H4.09473H4.10635H4.11797H4.12958H4.1412H4.15282H4.16444H4.17605H4.18767H4.19929H4.21091H4.22252H4.23414H4.24576H4.25738H4.269H4.28061H4.29223H4.30385H4.31547H4.32709H4.33871H4.35032H4.36194H4.37356H4.38518H4.3968H4.40842H4.42004H4.43165H4.44327H4.45489H4.46651H4.47813H4.48975H4.50137H4.51299H4.52461H4.53622H4.54784H4.55946H4.57108H4.5827H4.59432H4.60594H4.61756H4.62918H4.6408H4.65242H4.66404H4.67566H4.68728H4.6989H4.71052H4.72214H4.73376H4.74538H4.757H4.76862H4.78024H4.79186H4.80348H4.8151H4.82672H4.83834H4.84996H4.86158H4.8732H4.88482H4.89644H4.90806H4.91968H4.9313H4.94292H4.95454H4.96616H4.97778H4.9894H5.00102H5.01264H5.02426H5.03588H5.04751H5.05913H5.07075H5.08237H5.09399H5.10561H5.11723H5.12885H5.14047H5.15209H5.16372H5.17534H5.18696H5.19858H5.2102H5.22182H5.23344H5.24507H5.25669H5.26831H5.27993H5.29155H5.30317H5.3148H5.32642H5.33804H5.34966H5.36128H5.3729H5.38453H5.39615H5.40777H5.41939H5.43101H5.44264H5.45426H5.46588H5.4775H5.48912H5.50075H5.51237H5.52399H5.53561H5.54724H5.55886H5.57048H5.5821H5.59372H5.60535H5.61697H5.62859H5.64021H5.65184H5.66346H5.67508H5.6867H5.69833H5.70995H5.72157H5.73319H5.74482H5.75644H5.76806H5.77969H5.79131H5.80293H5.81455H5.82618H5.8378H5.84942H5.86105H5.87267H5.88429H5.89592H5.90754H5.91916H5.93078H5.94241H5.95403H5.96565H5.97728H5.9889H6.00052H6.01215H6.02377H6.03539H6.04702H6.05864H6.07026H6.08189H6.09351H6.10513H6.11676H6.12838H6.14H6.15163H6.16325H6.17488H6.1865H6.19812H6.20975H6.22137H6.23299H6.24462H6.25624H6.26786H6.27949H6.29111H6.30274H6.31436H6.32598H6.33761H6.34923H6.36086H6.37248H6.3841H6.39573H6.40735H6.41897H6.4306H6.44222H6.45385H6.46547H6.47709H6.48872H6.50034H6.51197H6.52359H6.53522H6.54684H6.55846H6.57009H6.58171H6.59334H6.60496H6.61658H6.62821H6.63983H6.65146H6.66308H6.67471H6.68633H6.69795H6.70958H6.7212H6.73283H6.74445H6.75608H6.7677H6.77932H6.79095H6.80257H6.8142H6.82582H6.83745H6.84907H6.8607H6.87232H6.88394H6.89557H6.90719H6.91882H6.93044H6.94207H6.95369H6.96532H6.97694H6.98856H7.00019H7.01181H7.02344H7.03506H7.04669H7.05831H7.06994H7.08156H7.09319H7.10481H7.11643H7.12806H7.13968H7.15131H7.16293H7.17456H7.18618H7.19781H7.20943H7.22106H7.23268H7.24431H7.25593H7.26755H7.27918H7.2908H7.30243H7.31405H7.32568H7.3373H7.34893H7.36055H7.37218H7.3838H7.39543H7.40705H7.41868H7.4303H7.44193H7.45355H7.46517H7.4768H7.48842H7.48921C9.49607 15.0957 11.5028 15.0957 13.5134 15.0993H13.5136C13.6887 15.0993 13.8395 15.0527 13.9463 14.95C14.0538 14.8464 14.1021 14.6999 14.0999 14.5306L14.0999 14.5306C14.0882 13.6726 13.8956 12.8448 13.4575 12.083L13.4573 12.0828C12.3708 10.2051 10.7027 9.18219 8.4297 9.10802L0.900075 14.4834ZM8.45606 10.1186C10.5822 10.1437 12.481 11.6334 12.9142 13.5932C12.9405 13.7129 12.9602 13.83 12.9811 13.9533C12.9874 13.9905 12.9937 14.0282 13.0004 14.0668H12.9879H12.9659H12.9439H12.9219H12.8999H12.8779H12.8559H12.8339H12.8119H12.7899H12.7679H12.7459H12.7239H12.7019H12.6799H12.6579H12.6359H12.6139H12.5919H12.5699H12.5479H12.5259H12.5039H12.482H12.46H12.438H12.416H12.394H12.372H12.35H12.328H12.306H12.284H12.2621H12.2401H12.2181H12.1961H12.1741H12.1521H12.1301H12.1082H12.0862H12.0642H12.0422H12.0202H11.9983H11.9763H11.9543H11.9323H11.9103H11.8883H11.8664H11.8444H11.8224H11.8004H11.7785H11.7565H11.7345H11.7125H11.6905H11.6686H11.6466H11.6246H11.6026H11.5807H11.5587H11.5367H11.5147H11.4928H11.4708H11.4488H11.4269H11.4049H11.3829H11.3609H11.339H11.317H11.295H11.2731H11.2511H11.2291H11.2071H11.1852H11.1632H11.1412H11.1193H11.0973H11.0753H11.0534H11.0314H11.0094H10.9875H10.9655H10.9435H10.9216H10.8996H10.8776H10.8557H10.8337H10.8117H10.7898H10.7678H10.7459H10.7239H10.7019H10.68H10.658H10.636H10.6141H10.5921H10.5702H10.5482H10.5262H10.5043H10.4823H10.4604H10.4384H10.4164H10.3945H10.3725H10.3506H10.3286H10.3066H10.2847H10.2627H10.2408H10.2188H10.1968H10.1749H10.1529H10.131H10.109H10.0871H10.0651H10.0431H10.0212H9.99923H9.97727H9.95532H9.93336H9.9114H9.88945H9.86749H9.84554H9.82358H9.80163H9.77967H9.75772H9.73576H9.71381H9.69186H9.6699H9.64795H9.62599H9.60404H9.58208H9.56013H9.53818H9.51622H9.49427H9.47232H9.45037H9.42841H9.40646H9.38451H9.36255H9.3406H9.31865H9.2967H9.27474H9.25279H9.23084H9.20889H9.18693H9.16498H9.14303H9.12108H9.09913H9.07718H9.05522H9.03327H9.01132H8.98937H8.96742H8.94547H8.92351H8.90156H8.87961H8.85766H8.83571H8.81376H8.79181H8.76985H8.7479H8.72595H8.704H8.68205H8.6601H8.63815H8.6162H8.59424H8.57229H8.55034H8.52839H8.50644H8.48449H8.46254H8.44059H8.41863H8.39668H8.37473H8.35278H8.33083H8.30888H8.28693H8.26497H8.24302H8.22107H8.19912H8.17717H8.15522H8.13326H8.11131H8.08936H8.06741H8.04546H8.0235H8.00155H7.9796H7.95765H7.93569H7.91374H7.89179H7.86984H7.84788H7.82593H7.80398H7.78203H7.76007H7.73812H7.71617H7.69421H7.67226H7.6503H7.62835H7.6064H7.58444H7.56249H7.54053H7.51858H7.49663H7.47467H7.45272H7.43076H7.40881H7.38685H7.3649H7.34294H7.32098H7.29903H7.27707H7.25512H7.23316H7.2112H7.18925H7.16729H7.14533H7.12338H7.10142H7.07946H7.0575H7.03555H7.01359H6.99163H6.96967H6.94771H6.92575H6.90379H6.88184H6.85988H6.83792H6.81596H6.794H6.77204H6.75008H6.72812H6.70615H6.68419H6.66223H6.64027H6.61831H6.59635H6.57438H6.55242H6.53046H6.5085H6.48653H6.46457H6.4426H6.42064H6.39868H6.37671H6.35475H6.33278H6.31082H6.28885H6.26688H6.24492H6.22295H6.20098H6.17902H6.15705H6.13508H6.11311H6.09115H6.06918H6.04721H6.02524H6.00327H5.9813H5.95933H5.93736H5.91539H5.89342H5.87145H5.84948H5.8275H5.80553H5.78356H5.76159H5.73961H5.71764H5.69566H5.67369H5.65172H5.62974H5.60777H5.58579H5.56381H5.54184H5.51986H5.49788H5.47591H5.45393H5.43195H5.40997H5.38799H5.36601H5.34403H5.32205H5.30007H5.27809H5.25611H5.23413H5.21215H5.19016H5.16818H5.1462H5.12421H5.10223H5.08024H5.05826H5.03627H5.01429H4.9923H4.97031H4.94833H4.92634H4.90435H4.88236H4.86037H4.83838H4.81639H4.7944H4.77241H4.75042H4.72843H4.70644H4.68445H4.66245H4.64046H4.61847H4.59647H4.57448H4.55248H4.53049H4.50849H4.48649H4.4645H4.4425H4.4205H4.3985H4.3765H4.3545H4.3325H4.3105H4.2885H4.2665H4.24449H4.22249H4.20049H4.17848H4.15648H4.13448H4.11247H4.09046H4.06846H4.04645H4.02444H4.00243H3.98043H3.95842H3.93641H3.9144H3.89239H3.87037H3.84836H3.82635H3.80434H3.78232H3.76031H3.73829H3.71628H3.69426H3.67225H3.65023H3.62821H3.60619H3.58417H3.56216H3.54013H3.51811H3.49609H3.47407H3.45205H3.43003H3.408H3.38598H3.36395H3.34193H3.3199H3.29787H3.27585H3.25382H3.23179H3.20976H3.18773H3.1657H3.14367H3.12164H3.0996H3.07757H3.05554H3.0335H3.01147H2.98943H2.9674H2.94536H2.92332H2.90128H2.87924H2.8572H2.83516H2.81312H2.79108H2.76904H2.74699H2.72495H2.7029H2.68086H2.65881H2.63677H2.61472H2.59267H2.57062H2.54857H2.52652H2.50447H2.48242H2.46037H2.43831H2.41626H2.39421H2.37215H2.35009H2.32804H2.30598H2.28392H2.26186H2.2398H2.21774H2.19568H2.17362H2.15156H2.12949H2.10743H2.08536H2.0633H2.04123H2.01916H1.99709H1.98843C2.00091 14.0057 2.01253 13.9449 2.02396 13.8852C2.03221 13.842 2.04035 13.7994 2.04864 13.7576C2.07639 13.6178 2.10632 13.4838 2.14875 13.3547C2.70094 11.6873 3.86529 10.6272 5.6732 10.2184L5.67387 10.2182C5.94647 10.1546 6.2362 10.1294 6.52585 10.1222C7.16864 10.1077 7.81176 10.1113 8.45606 10.1186ZM8.45606 10.1186L8.45724 10.0186M8.45606 10.1186L8.45724 10.0186M8.45724 10.0186C7.81265 10.0113 7.16806 10.0077 6.52347 10.0223L13.1019 14.0668C13.0945 14.0242 13.0874 13.9821 13.0803 13.9404C13.0591 13.815 13.0385 13.6933 13.0118 13.5716C12.5679 11.5632 10.6265 10.0442 8.45724 10.0186Z" fill="#BE0000" stroke="#AAAAAA" stroke-width="0.2"/>
</svg>
