<svg width="77" height="76" viewBox="0 0 77 76" fill="none" xmlns="http://www.w3.org/2000/svg">
<path d="M18.3259 0.0396329C19.5354 0.317067 20.7648 0.475601 21.9149 0.871935C32.0473 4.22096 36.2708 16.0714 30.6196 25.1276C26.8125 31.2312 23.1244 37.3942 19.3768 43.5374C19.2975 43.6563 19.238 43.795 19.2182 43.8346C19.8924 44.6471 20.5269 45.42 21.2605 46.3315C23.3227 46.3315 25.603 46.3117 27.8635 46.3315C29.8463 46.3514 31.8292 46.2325 33.7922 46.4901C37.5993 46.9855 40.2563 50.4732 39.9787 54.2979C39.7011 58.063 36.5682 61.1148 32.781 61.1346C26.8919 61.1941 21.0028 61.1545 15.1137 61.1545C14.5386 61.1545 13.924 61.2139 13.3688 61.3923C11.3264 62.0264 10.0376 64.127 10.3548 66.1879C10.6919 68.4074 12.4963 70.0324 14.7568 70.0324C19.4958 70.0522 24.2547 70.0324 28.9937 70.0324C29.2316 70.0324 29.4894 70.0125 29.7273 70.0522C30.5205 70.1314 31.0955 70.7854 31.0757 71.5582C31.0559 72.2915 30.5007 72.9058 29.7273 73.0049C29.6084 73.0247 29.4894 73.0247 29.3506 73.0247C24.4529 73.0247 19.5553 73.0643 14.6576 73.0049C10.5134 72.9652 7.26155 69.5766 7.32103 65.4547C7.38052 61.4319 10.6721 58.2018 14.7964 58.1819C20.6855 58.1621 26.5746 58.1819 32.4637 58.1621C34.6845 58.1621 36.4294 56.7551 36.9053 54.6348C37.4803 52.0388 35.5768 49.3635 32.9197 49.3041C28.9739 49.205 25.0081 49.2842 21.0623 49.2842C20.1501 51.2857 18.6432 52.3955 16.4224 52.1973C14.5188 52.0388 13.1903 50.9687 12.6153 49.1455C11.9411 46.9855 12.7342 45.2812 14.5188 43.9337C14.3998 43.7157 14.2809 43.4977 14.1619 43.2996C10.3945 37.1366 6.64686 30.9934 2.87943 24.8304C1.68972 22.8685 0.936228 20.7283 0.6388 18.4494C0.618971 18.2314 0.539657 18.0332 0.5 17.8152C0.5 16.8244 0.5 15.8336 0.5 14.8427C0.539657 14.6248 0.599142 14.4266 0.6388 14.2086C1.63023 8.00596 5.00109 3.62646 10.791 1.20882C12.2187 0.614319 13.8248 0.396335 15.3516 0C16.343 0.0396335 17.3345 0.0396329 18.3259 0.0396329ZM16.8388 41.9322C16.9776 41.7341 17.0767 41.6152 17.156 41.4566C20.9036 35.3332 24.6512 29.1901 28.379 23.0667C29.4696 21.2634 30.0446 19.2817 30.1636 17.1811C30.6395 8.79863 23.4615 2.10057 15.1335 3.15086C5.59595 4.33986 0.400856 15.0805 5.39766 23.2649C9.06595 29.2693 12.7342 35.2738 16.4025 41.2783C16.5215 41.4764 16.6603 41.6746 16.8388 41.9322ZM18.3061 47.798C18.3061 47.0053 17.6319 46.3514 16.8586 46.3315C16.0456 46.3117 15.3516 47.0053 15.3516 47.8178C15.3516 48.6105 16.0258 49.2644 16.7991 49.2842C17.6319 49.304 18.3259 48.6105 18.3061 47.798Z" fill="#BE0000"/>
<path d="M62.5049 67.7145C64.1309 68.9233 64.924 70.4691 64.5076 72.4507C64.1309 74.3333 62.6437 75.6809 60.76 75.9583C58.9754 76.2159 57.1116 75.2845 56.2589 73.6001C56.021 73.1245 55.7434 73.0056 55.2477 73.0056C51.3613 73.0254 47.4749 73.0056 43.5885 73.0056C43.3703 73.0056 43.1522 73.0056 42.9143 73.0056C42.0617 72.9461 41.4668 72.312 41.4668 71.5193C41.4668 70.7267 42.0815 70.0727 42.9341 70.0529C44.2626 70.0133 45.611 70.0331 46.9395 70.0331C49.7551 70.0331 52.5708 70.0331 55.4063 70.0331C55.8029 70.0331 55.9813 69.9142 56.1994 69.5575C56.6158 68.8837 57.171 68.2694 57.7659 67.5362C57.7262 67.4569 57.5874 67.2389 57.4486 67.0209C53.7407 61.2146 49.9931 55.4281 46.3446 49.5822C40.1383 39.6342 46.0869 26.6939 57.6866 24.8311C66.7483 23.3845 75.3539 29.9438 76.3849 39.0793C76.8212 42.8842 76.028 46.4115 73.9857 49.6417C70.3372 55.4281 66.6293 61.1948 62.961 66.9615C62.8222 67.1993 62.6834 67.4173 62.5049 67.7145ZM60.1652 65.7923C60.304 65.5941 60.3833 65.4951 60.4428 65.396C64.1309 59.6095 67.8388 53.823 71.5071 48.0167C73.1925 45.3612 73.8469 42.4284 73.3908 39.2973C72.5977 33.9864 69.6829 30.2609 64.6464 28.4576C59.5901 26.6344 54.9106 27.6847 50.9647 31.3508C46.305 35.6709 45.4325 42.6464 48.8232 48.0365C52.1544 53.3276 55.5253 58.579 58.8961 63.8503C59.3125 64.4448 59.7091 65.0789 60.1652 65.7923ZM60.1453 73.0254C60.9385 73.0452 61.6126 72.4111 61.6523 71.6184C61.692 70.8059 61.0178 70.0925 60.2048 70.0727C59.4117 70.0529 58.7375 70.687 58.6978 71.4797C58.6582 72.2922 59.3324 73.0056 60.1453 73.0254Z" fill="#BE0000"/>
<path d="M36.2499 73.0254C35.437 73.0056 34.7628 72.2922 34.8024 71.4797C34.8421 70.687 35.5163 70.0529 36.3094 70.0727C37.1224 70.0925 37.7966 70.8059 37.7569 71.6184C37.7173 72.4111 37.0233 73.0452 36.2499 73.0254Z" fill="#BE0000"/>
<path d="M16.8775 23.7802C12.8127 23.8001 9.44179 20.4708 9.42196 16.4084C9.40213 12.3063 12.7333 8.9375 16.8379 8.9375C20.9027 8.9375 24.2538 12.2667 24.2538 16.3291C24.2538 20.4114 20.9424 23.7604 16.8775 23.7802ZM21.2795 16.3886C21.2993 13.9511 19.3164 11.9298 16.8775 11.91C14.4386 11.8902 12.4161 13.8521 12.3764 16.2895C12.3368 18.7666 14.3395 20.8077 16.818 20.8077C19.2569 20.8077 21.2795 18.8261 21.2795 16.3886Z" fill="#BE0000"/>
<path d="M60.1439 33.5704C64.2286 33.5506 67.5796 36.86 67.5995 40.9422C67.6193 45.0443 64.2881 48.4131 60.1836 48.4131C56.1187 48.4131 52.7677 45.0839 52.7677 41.0017C52.7478 36.9194 56.079 33.5902 60.1439 33.5704ZM60.2034 36.5429C57.7645 36.5231 55.742 38.5048 55.7221 40.9422C55.7023 43.3797 57.6852 45.401 60.1042 45.4406C62.5828 45.4604 64.6053 43.459 64.6252 41.0017C64.6252 38.5444 62.6423 36.5429 60.2034 36.5429Z" fill="#BE0000"/>
</svg>
