<svg width="67" height="76" viewBox="0 0 67 76" fill="none" xmlns="http://www.w3.org/2000/svg">
<path d="M49.2662 76C49.2662 75.2877 49.2662 74.5754 49.2662 73.7641C50.3536 73.7641 51.3223 73.7641 52.3108 73.7641C53.3982 73.7641 53.7738 73.3684 53.7145 72.2801C53.675 71.2908 53.5564 70.3015 53.5564 69.3122C53.5564 68.7383 53.3191 68.6196 52.8051 68.6196C49.1476 68.6394 45.5099 68.6394 41.8524 68.6394C41.5558 68.6394 41.279 68.6394 40.9232 68.6394C40.9232 63.8709 40.9232 59.1815 40.9232 54.3931C44.7586 54.3931 48.594 54.3931 52.5481 54.3931C51.8364 43.3523 51.1246 32.4301 50.4129 21.4288C51.1642 21.3694 51.8364 21.3299 52.6272 21.2705C53.4377 33.6173 54.2286 45.9443 55.0391 58.4098C58.1233 57.3809 61.1284 56.3718 64.1928 55.3627C63.9753 53.5225 63.7381 51.7022 63.5206 49.9016C62.8484 44.5394 62.196 39.1575 61.5238 33.7954C60.8516 28.4332 60.1992 23.0513 59.527 17.6891C59.4677 17.1549 59.3491 16.6207 59.3293 16.0667C59.2502 14.7014 58.5978 13.6725 57.4116 13.0987C55.9486 12.3864 54.3867 11.9115 52.9633 11.1398C51.1049 10.1307 49.4244 10.2098 47.6055 11.3179C46.1623 12.1885 44.5609 12.8217 42.999 13.4944C42.5443 13.6923 42.4059 13.9495 42.4059 14.4442C42.4455 16.2645 42.4257 18.1047 42.4257 19.9844C41.6942 19.9844 41.0023 19.9844 40.2312 19.9844C40.2312 18.3025 40.2312 16.6207 40.2312 14.8201C38.3926 15.6907 36.6528 16.4822 34.9328 17.3132C34.8142 17.3726 34.7153 17.5704 34.6758 17.7089C34.6362 17.9068 34.656 18.1047 34.656 18.3025C34.656 36.4863 34.656 54.6504 34.656 72.8342C34.656 73.1112 34.656 73.3684 34.656 73.7246C37.3052 73.7246 39.8951 73.7246 42.5641 73.7246C42.5641 74.5358 42.5641 75.2679 42.5641 75.9802C32.936 75.9802 23.3276 75.9802 13.6995 75.9802C13.2448 75.723 12.7308 75.5053 12.3156 75.169C11.4259 74.4566 11.0701 73.4871 11.1491 72.3395C11.3864 68.679 11.6236 65.0383 11.8609 61.3778C11.8806 61.1799 11.8806 60.982 11.9004 60.7248C11.3271 60.5269 10.7537 60.3093 10.1804 60.1312C7.17532 59.1221 4.15047 58.113 1.12562 57.1237C0.591823 56.9456 0.453432 56.7081 0.512743 56.1739C1.18493 50.8513 1.83735 45.5288 2.50954 40.2062C3.18173 34.8045 3.85392 29.4225 4.52611 24.0208C4.70404 22.6556 4.8622 21.2903 5.04013 19.8657C5.7914 19.9646 6.46359 20.0437 7.23463 20.1625C5.7914 31.8959 4.3284 43.5897 2.88518 55.3429C5.9298 56.3718 8.95465 57.3809 12.0388 58.4098C12.8494 45.9839 13.6402 33.6569 14.4508 21.2705C15.2021 21.3101 15.8742 21.3694 16.665 21.409C15.9533 32.3905 15.2416 43.3325 14.5299 54.3338C18.4444 54.3338 22.26 54.3338 26.135 54.3338C26.135 59.1023 26.135 63.8115 26.135 68.6196C25.8385 68.6196 25.5617 68.6196 25.2849 68.6196C21.6867 68.6196 18.0885 68.6394 14.4903 68.5998C13.7193 68.5801 13.5216 68.8373 13.5413 69.5496C13.5413 70.5389 13.4227 71.5283 13.3832 72.5176C13.3634 73.2892 13.7786 73.7443 14.5496 73.7443C20.4016 73.7641 26.2339 73.7443 32.0859 73.7443C32.1847 73.7443 32.2638 73.7048 32.422 73.6652C32.422 73.3684 32.422 73.0716 32.422 72.7748C32.422 54.591 32.4219 36.427 32.4417 18.2432C32.4417 17.61 32.2836 17.2736 31.6905 17.0164C30.1088 16.3437 28.5667 15.572 26.906 14.8003C26.906 16.5811 26.906 18.263 26.906 19.9844C26.135 19.9844 25.4628 19.9844 24.672 19.9844C24.672 19.7667 24.672 19.5293 24.672 19.2919C24.672 17.6298 24.6522 15.9677 24.672 14.3254C24.672 13.9297 24.5732 13.6923 24.1975 13.534C21.8844 12.4853 19.591 11.3772 17.2977 10.3286C17.0605 10.2296 16.7046 10.1901 16.4673 10.2692C14.5694 10.9815 12.711 11.7334 10.8131 12.4655C10.7933 12.4655 10.7735 12.4853 10.734 12.4853C8.77671 13.257 7.64981 14.6222 7.63004 16.8185C7.63004 17.1747 7.53119 17.5309 7.49165 17.9464C6.74038 17.8474 6.06819 17.7683 5.396 17.6694C5.47508 13.9693 6.22635 12.0302 9.9827 10.4077C11.8213 9.61625 13.6995 8.96329 15.5381 8.2114C15.8149 8.09268 16.1313 7.91461 16.2696 7.65738C17.7326 5.12471 19.1759 2.55246 20.6191 0C29.1994 0 37.7797 0 46.36 0C47.6055 2.1963 48.8906 4.35303 50.057 6.58891C50.6106 7.65738 51.3816 8.23119 52.469 8.64671C54.4065 9.35902 56.344 10.1307 58.2024 11.0211C60.0212 11.8917 61.1679 13.3955 61.4249 15.4335C61.8006 18.3223 62.1367 21.2309 62.4925 24.1198C63.1647 29.4819 63.8171 34.8638 64.4893 40.226C65.1417 45.5486 65.8139 50.8711 66.4861 56.1937C66.5454 56.7081 66.4268 56.9654 65.893 57.1435C63.481 57.9151 61.0691 58.7264 58.6769 59.5376C57.4907 59.9333 56.3044 60.3291 55.1182 60.7446C55.138 61.0612 55.1578 61.3184 55.1775 61.5558C55.4148 65.1768 55.652 68.8175 55.8695 72.4384C55.9683 74.0016 55.1775 75.169 53.7738 75.7626C53.6157 75.8219 53.4773 75.9209 53.3389 76C52.0341 76 50.6501 76 49.2662 76ZM33.5884 14.919C36.9098 10.6649 40.1719 6.50976 43.4735 2.31502C36.8307 2.31502 30.3263 2.31502 23.7033 2.31502C27.0247 6.52955 30.267 10.6847 33.5884 14.919ZM23.9998 61.1008C20.6982 61.1008 17.4559 61.1008 14.1542 61.1008C14.0356 62.8815 13.9368 64.6228 13.8181 66.3838C17.2582 66.3838 20.5993 66.3838 23.9998 66.3838C23.9998 64.6228 23.9998 62.9013 23.9998 61.1008ZM43.1374 66.364C46.5577 66.364 49.9186 66.364 53.3389 66.364C53.2203 64.5634 53.1017 62.8222 53.0028 61.1205C49.6419 61.1205 46.4193 61.1205 43.1374 61.1205C43.1374 62.8815 43.1374 64.5832 43.1374 66.364ZM45.6483 3.12627C42.92 6.58891 40.251 10.012 37.582 13.435C37.6215 13.4746 37.6611 13.534 37.7006 13.5735C41.3581 11.8719 44.9958 10.1505 48.6929 8.42906C47.6451 6.62848 46.6763 4.90706 45.6483 3.12627ZM29.4762 13.5735C29.5157 13.5142 29.5355 13.4746 29.575 13.4153C26.906 10.012 24.2371 6.58891 21.5088 3.12627C20.4807 4.92684 19.4922 6.64827 18.4839 8.42906C22.2007 10.1505 25.8385 11.8719 29.4762 13.5735ZM14.3124 58.7659C17.614 58.7659 20.797 58.7659 23.9998 58.7659C23.9998 58.0338 23.9998 57.3413 23.9998 56.6488C20.797 56.6488 17.6733 56.6488 14.4508 56.6488C14.4112 57.3611 14.3717 58.0338 14.3124 58.7659ZM43.1374 58.7659C46.3995 58.7659 49.5825 58.7659 52.8446 58.7659C52.8051 58.0338 52.7458 57.3413 52.7062 56.6686C49.4837 56.6686 46.3204 56.6686 43.1374 56.6686C43.1374 57.4007 43.1374 58.0536 43.1374 58.7659Z" fill="#BE0000"/>
<path d="M44.8379 76.0007C44.8379 75.2884 44.8379 74.5959 44.8379 73.8242C45.6287 73.8242 46.3009 73.8242 47.0522 73.8242C47.0522 74.5563 47.0522 75.2686 47.0522 76.0007C46.3207 76.0007 45.5694 76.0007 44.8379 76.0007Z" fill="#BE0000"/>
<path d="M20.7773 25.2676C22.9718 25.2676 25.1268 25.2676 27.3213 25.2676C27.3213 30.4516 27.3213 35.5961 27.3213 40.7802C25.1466 40.7802 22.9916 40.7802 20.7773 40.7802C20.7773 35.6357 20.7773 30.4912 20.7773 25.2676ZM25.107 38.5839C25.107 34.8443 25.107 31.1837 25.107 27.5232C24.3558 27.5232 23.6638 27.5232 22.9916 27.5232C22.9916 31.2431 22.9916 34.9036 22.9916 38.5839C23.7231 38.5839 24.3755 38.5839 25.107 38.5839Z" fill="#BE0000"/>
<path d="M56.6011 15.3735C56.3441 16.066 56.087 16.6992 55.8103 17.4313C55.1183 17.1741 54.4659 16.9366 53.7344 16.6596C54.0112 15.9671 54.2484 15.3141 54.5252 14.582C55.2369 14.859 55.8893 15.0965 56.6011 15.3735Z" fill="#BE0000"/>
<path d="M52.4487 13.7719C52.1917 14.4645 51.9347 15.0976 51.6579 15.8297C50.966 15.5725 50.3333 15.3351 49.582 15.0581C49.839 14.3655 50.0961 13.7126 50.3728 12.9805C51.0846 13.2575 51.737 13.4949 52.4487 13.7719Z" fill="#BE0000"/>
</svg>
