<svg width="75" height="76" viewBox="0 0 75 76" fill="none" xmlns="http://www.w3.org/2000/svg">
<path d="M31.8029 0C33.4888 0 35.1935 0 36.8795 0C37.198 0.0558244 37.5164 0.130258 37.8349 0.148866C41.0944 0.353555 44.3165 0.911799 47.4636 1.76777C52.84 3.23782 57.8042 5.58245 62.3938 8.72722C65.6534 10.9602 67.995 13.9189 69.1751 17.6777C70.0181 20.3387 70.6925 23.0555 71.4606 25.7351C71.5355 26.0328 71.7603 26.3864 72.0226 26.498C73.7085 27.2609 74.4953 28.5635 74.4953 30.3871C74.4953 38.4258 74.514 46.4832 74.4766 54.5219C74.4766 55.2848 74.3455 56.1966 73.8959 56.7549C73.2215 57.6108 73.2027 58.4854 73.2027 59.453C73.184 61.2766 73.3151 63.1002 72.7719 64.8866C71.779 68.1617 70.0369 70.9715 67.4143 73.2045C64.1172 76.0143 60.558 76.8517 56.3618 75.0467C47.4449 71.1948 38.4531 67.5104 29.48 63.7515C21.0689 60.2346 12.6577 56.699 4.24664 53.1821C0.612437 51.6562 -0.530274 48.2137 1.49289 44.8456C2.12981 43.785 2.748 42.7057 3.42238 41.6636C4.04057 40.7332 4.15297 39.7842 3.85324 38.7049C3.14139 36.1184 2.72926 33.4761 2.6356 30.7965C2.467 25.028 3.66591 19.5386 6.28853 14.3841C6.68192 13.6212 6.75686 12.8396 6.60699 12.0023C6.08247 9.08078 7.43124 6.69894 10.2412 5.65688C12.1332 4.94977 14.044 4.31709 15.936 3.62859C20.9377 1.78638 26.0331 0.446598 31.3907 0.130259C31.5219 0.111651 31.653 0.0372163 31.8029 0ZM71.9289 42.4824C71.9289 41.9056 71.9289 41.3473 71.9289 40.7705C71.9289 37.3279 71.9289 33.8854 71.9289 30.4429C71.9289 29.3264 71.7603 29.159 70.73 29.159C67.0209 29.159 63.3117 29.159 59.5839 29.159C59.1717 29.159 58.7409 29.1962 58.3288 29.3078C54.6946 30.2568 51.0791 31.2431 47.4449 32.1921C44.6162 32.9364 42.7429 34.667 42.1435 37.5326C41.5253 40.4913 42.6492 42.8546 45.0658 44.6596C49.2058 47.7299 53.3645 50.7444 57.4483 53.8706C58.8533 54.9499 60.4268 55.5453 62.1128 55.6756C65.0914 55.8803 68.0886 55.8617 71.0672 55.8803C71.3294 55.8803 71.6854 55.4709 71.854 55.1732C72.0038 54.9126 71.9476 54.5405 71.9476 54.2241C71.9476 50.3164 71.9289 46.3901 71.9289 42.4824ZM48.8124 58.1877C46.0587 55.7128 43.4173 53.3123 40.7385 50.9305C40.3451 50.577 39.858 50.2792 39.371 50.0931C31.2971 46.967 24.4595 42.1102 18.8958 35.5043C15.1492 31.057 17.3035 24.5069 22.9796 23.1299C23.2981 23.0555 23.6353 22.9997 24.1036 22.9066C21.6683 20.6923 19.6264 18.329 17.903 15.6681C16.1795 12.9885 14.9057 10.1228 13.8941 7.05249C12.9387 7.38744 12.077 7.68517 11.2153 8.0015C9.52934 8.61557 8.79875 9.76928 9.11721 11.5184C9.39821 12.9885 9.15468 14.3469 8.49902 15.6867C6.66319 19.3525 5.55794 23.2416 5.29568 27.3354C5.27695 27.5959 5.35188 27.9494 5.52048 28.1355C8.66762 31.6711 11.7398 35.2997 15.0181 38.7049C23.3168 47.3019 33.2266 53.8892 43.0426 60.5881C43.2112 60.6998 43.5297 60.7742 43.6983 60.6998C45.3655 59.8996 47.0328 59.0623 48.8124 58.1877ZM47.1826 53.0704C47.1452 53.1077 47.1264 53.1449 47.089 53.1821C48.138 54.1311 49.2058 55.0615 50.2548 56.0105C51.997 57.5922 51.716 59.5833 49.6366 60.6254C48.1193 61.3883 46.5832 62.0768 45.1033 62.8769C43.8107 63.584 42.668 63.4724 41.4878 62.635C39.1462 60.9603 36.7671 59.3042 34.3693 57.7039C23.6727 50.5583 14.0253 42.2591 5.74527 32.434C5.65161 32.3224 5.50174 32.2293 5.31441 32.0618C5.33315 32.4154 5.31442 32.6759 5.37061 32.9178C5.68907 34.6484 5.95134 36.3789 6.36346 38.0909C6.77559 39.8028 6.62572 41.3659 5.67034 42.8546C5.44555 43.2081 5.23948 43.5617 5.03342 43.9338C7.20645 45.6272 9.5106 47.0414 12.0958 47.8229C16.4793 49.1441 20.4507 51.191 24.2347 53.7589C30.8287 58.2435 37.5351 62.5978 44.1854 66.9893C44.4664 67.1754 44.7661 67.3801 45.0845 67.5104C48.7 69.0362 52.3342 70.5621 55.9497 72.0508C56.1745 72.1438 56.5491 72.1066 56.7365 71.9763C58.2726 70.8412 59.6213 69.5387 60.6516 67.9197C61.5508 66.5241 62.2439 65.0355 62.5437 63.3607C61.888 63.1002 61.2886 62.8583 60.6891 62.6164C59.5651 62.1512 58.9844 61.2952 58.9282 60.1043C58.9095 59.788 58.9282 59.453 58.9282 59.1367C58.9282 57.5736 58.9282 57.5736 57.4483 56.9968C54.0014 55.6756 50.592 54.373 47.1826 53.0704ZM16.7603 6.04765C16.8727 6.23373 16.9289 6.32677 17.0038 6.41981C18.9895 8.9133 21.2562 11.1277 23.7664 13.1187C27.2133 15.8355 31.091 17.7708 35.1186 19.4641C35.512 19.6316 36.0552 19.6316 36.5048 19.5386C39.7456 18.8873 42.9864 18.1802 46.2272 17.4917C47.2014 17.287 48.1755 17.0637 49.0559 16.859C48.1567 15.5936 47.3138 14.3655 46.452 13.1746C45.7215 12.1883 45.4217 11.1463 46.0399 9.97397C45.9275 9.88093 45.8526 9.78789 45.7402 9.71346C42.5368 7.40605 39.3335 5.08003 36.1302 2.77262C35.8866 2.60514 35.5307 2.5121 35.231 2.53071C33.4701 2.58653 31.6905 2.64236 29.9296 2.79122C25.3962 3.18199 21.0689 4.41013 16.7603 6.04765ZM69.044 26.6283C68.9504 26.2561 68.8567 25.9956 68.8192 25.7351C68.763 25.0466 68.3884 24.8791 67.714 24.8977C66.4027 24.9535 65.0726 24.9163 63.7426 24.9163C62.6373 24.9163 61.7569 24.4883 61.1762 23.5579C60.9139 23.1299 60.6704 22.7019 60.3519 22.3112C60.1459 22.0507 59.9211 21.7715 59.6213 21.6413C57.5607 20.7109 55.5001 19.7805 53.4207 18.9059C53.0835 18.757 52.6339 18.7198 52.278 18.7942C47.1452 19.8735 42.0123 20.99 36.8608 22.032C36.0552 22.1995 35.0624 22.1809 34.3131 21.8646C29.405 19.8735 24.7405 17.4358 20.7317 13.9375C20.1884 13.4537 19.6264 12.9699 19.0832 12.4861C19.1019 12.728 19.2143 12.9327 19.308 13.1187C21.687 17.2498 24.9278 20.5992 28.7681 23.4091C29.0116 23.5951 29.3488 23.6882 29.6486 23.744C31.2783 24.0789 32.9268 24.3953 34.5566 24.7302C38.8277 25.6048 43.0988 26.5166 47.4824 26.5724C54.4323 26.6655 61.3822 26.6097 68.3509 26.6283C68.5382 26.6283 68.7256 26.6283 69.044 26.6283ZM48.1193 29.3823C43.6234 28.7496 38.9214 28.0983 34.1632 27.447C34.3505 30.1824 33.3577 32.4712 30.8662 34.2948C31.2596 34.5926 31.5968 34.7786 31.859 35.0391C33.5076 36.565 34.2381 38.463 34.1632 40.696C34.1257 41.8497 34.1819 43.022 34.1445 44.1944C34.1257 44.7526 34.3318 45.0131 34.8001 45.255C38.7715 47.3577 43.0239 48.7534 47.2014 50.3909C47.9132 50.67 48.6438 50.9305 49.3557 51.2096C47.4074 49.6279 45.4217 48.1393 43.436 46.6506C39.9704 44.0455 38.6029 40.2308 39.858 36.137C40.9071 32.7131 43.3611 30.6476 46.808 29.7358C47.3512 29.587 47.857 29.4567 48.1193 29.3823ZM31.5781 26.7213C29.5736 26.3305 27.5505 25.8653 25.5273 25.549C23.2044 25.1954 21.2 26.2189 20.1884 28.1169C19.1206 30.0894 19.4765 32.2665 21.0501 34.0901C23.9537 37.4582 27.2133 40.4169 30.9411 42.8732C31.1472 43.0034 31.3533 43.1151 31.5781 43.2639C31.8216 40.5285 31.934 37.9234 29.3863 36.0998C29.3301 36.0626 29.2739 35.9882 29.2364 35.9323C28.1687 34.7228 28.2249 33.1039 29.5174 32.1363C31.3533 30.7779 31.8216 28.9543 31.5781 26.7213ZM40.9258 3.10756C42.6305 4.3357 44.354 5.56384 46.0399 6.81058C47.5198 7.90846 49.0372 8.87609 50.7606 9.62041C54.2637 11.1277 57.6918 12.7652 61.1387 14.3469C62.3001 14.8865 63.4991 14.5516 64.7542 14.6074C64.0236 13.3607 62.4875 11.8348 60.9701 10.7927C54.9193 6.66172 48.2691 4.03797 40.9258 3.10756ZM3.68465 46.1668C2.42954 48.0462 3.02899 49.9071 5.14582 50.7816C13.7443 54.3916 22.3427 57.983 30.9224 61.593C31.091 61.6674 31.2783 61.7232 31.4657 61.7977C31.2783 61.5185 31.0535 61.3697 30.8287 61.2208C27.4193 58.9506 23.9912 56.699 20.5818 54.4288C18.3338 52.9402 15.9548 51.7307 13.3509 50.9491C10.8406 50.1862 8.42409 49.2372 6.19487 47.8415C5.37061 47.3205 4.5651 46.7437 3.68465 46.1668ZM64.9602 64.2912C63.9861 67.9383 62.0566 70.897 59.2654 73.3719C60.2395 73.4278 61.1949 73.4278 62.0941 73.2789C63.7239 72.9998 64.9602 71.9763 66.1404 70.8784C67.92 69.2223 69.2126 67.2871 70.0181 64.9424C68.2947 64.7936 66.5713 65.2402 64.9602 64.2912ZM48.4939 11.351C48.4377 11.3882 48.4003 11.4254 48.3441 11.4626C49.0185 12.4302 49.6367 13.4351 50.3672 14.3655C50.667 14.7563 51.1353 15.0726 51.6036 15.2959C54.5072 16.5985 57.4108 17.8824 60.3332 19.1478C60.483 19.2222 60.764 19.2408 60.8577 19.1664C61.6258 18.4965 62.5437 18.4965 63.4616 18.5151C64.5294 18.5151 65.5784 18.5151 66.6649 18.5151C66.4214 17.1939 66.4214 17.1939 65.2787 17.1939C64.3982 17.1939 63.5365 17.1567 62.6561 17.2125C61.6632 17.2684 60.764 17.0265 59.8461 16.5985C56.0995 14.8307 52.2967 13.1001 48.4939 11.351ZM61.4384 58.3738C61.4384 58.6343 61.4759 59.0064 61.4384 59.36C61.3635 59.9741 61.5883 60.2904 62.1877 60.4951C63.293 60.8673 64.3982 61.2766 65.4286 61.7977C67.0771 62.635 68.8192 62.3187 70.5989 62.3745C70.5989 61.0533 70.5989 59.788 70.5989 58.3738C67.5266 58.3738 64.5294 58.3738 61.4384 58.3738ZM62.7872 21.0644C62.7497 21.1389 62.6935 21.1947 62.6561 21.2691C63.012 21.6413 63.3305 22.2926 63.7239 22.3298C65.0726 22.46 66.4401 22.3856 68.0512 22.3856C67.6952 21.8274 67.4892 21.1389 67.2269 21.1202C65.747 21.0086 64.2671 21.0644 62.7872 21.0644Z" fill="#BE0000"/>
</svg>
