<svg width="77" height="76" viewBox="0 0 77 76" fill="none" xmlns="http://www.w3.org/2000/svg">
<path d="M67.1926 14.0862C65.8129 15.197 64.3156 16.1731 62.7328 16.9811C63.9107 20.5486 64.6344 24.7389 64.7525 29.2326H74.0925C73.7897 23.4268 71.3152 18.2094 67.4622 14.3552C67.3784 14.2709 67.2775 14.1699 67.1926 14.0862ZM74.0931 31.6056H64.7531C64.6522 35.9306 63.9623 39.9695 62.8515 43.4527C62.8177 43.5881 62.7666 43.7223 62.7168 43.857C64.3156 44.6645 65.8129 45.6411 67.1926 46.7519C68.6062 45.3882 69.8518 43.8232 70.8616 42.1401C72.7472 39.0267 73.8913 35.442 74.0931 31.6056ZM65.3759 48.3329C64.2823 47.475 63.1205 46.7347 61.8927 46.078C60.7148 48.8714 59.2163 51.1773 57.5166 52.7927C57.0458 53.2475 56.3049 53.2303 55.8501 52.7589C55.3953 52.2875 55.4131 51.5305 55.8839 51.0764C57.3818 49.6622 58.6784 47.6258 59.7382 45.102C59.6373 45.0682 59.5363 45.0349 59.4354 44.9845C57.2969 44.177 54.9922 43.6884 52.586 43.5709V43.8903C52.586 44.5463 52.0641 45.0854 51.4081 45.0854C50.752 45.0854 50.2124 44.5469 50.2124 43.8903V42.3425V31.6056H44.6417C43.9857 31.6056 43.4638 31.0671 43.4638 30.4104C43.4638 29.7538 43.9857 29.2326 44.6417 29.2326H50.2124V19.6569C48.3446 19.5559 46.5101 19.2698 44.7599 18.7812C43.902 18.5461 43.0773 18.2765 42.2693 17.9565C41.0914 21.5412 40.4188 25.8158 40.4188 30.4104C40.4188 31.0665 39.8797 31.6056 39.2231 31.6056C38.5837 31.6056 38.0452 31.0671 38.0452 30.4104C38.0452 25.4626 38.8022 20.8514 40.081 16.9811C39.5763 16.7115 39.0883 16.4426 38.6003 16.1558C38.0286 15.8198 37.8433 15.0961 38.18 14.5404C38.5166 13.9681 39.2409 13.7828 39.796 14.1195C40.1659 14.338 40.5357 14.557 40.9228 14.7423C41.1757 14.1361 41.4447 13.5472 41.7475 12.9748C42.5721 11.3261 43.5481 9.89475 44.6079 8.73348C42.6392 9.35626 40.7881 10.2314 39.0883 11.3255C38.5326 11.6788 37.8095 11.5108 37.4557 10.9717C37.1024 10.416 37.2538 9.67567 37.8089 9.32242C39.7954 8.04361 41.982 7.03433 44.3045 6.34386C46.56 5.68783 48.9496 5.33398 51.4069 5.33398C58.34 5.33398 64.6005 8.12732 69.1447 12.6715C73.6876 17.215 76.4988 23.4927 76.4988 30.4093C76.4988 35.1547 75.1861 39.5807 72.8974 43.3506C70.5411 47.2547 67.1588 50.4696 63.1038 52.6069C62.5149 52.9263 61.8072 52.6912 61.505 52.1189C61.2028 51.5466 61.4201 50.8228 61.993 50.5207C63.0195 49.9828 65.595 48.2492 65.3759 48.3329ZM58.2059 8.73407C59.2668 9.89534 60.2256 11.3261 61.0663 12.9754C61.3524 13.5477 61.622 14.1367 61.8921 14.7429C63.1199 14.1034 64.2817 13.3459 65.3753 12.504C63.2546 10.8547 60.8312 9.55931 58.2059 8.73407ZM60.5462 42.8804L60.5961 42.7456C61.6398 39.4975 62.2786 35.6943 62.3807 31.605H52.586V41.1807C55.2784 41.3154 57.8698 41.8705 60.2761 42.7789C60.377 42.8127 60.4613 42.8466 60.5462 42.8804ZM62.3807 29.232C62.2786 25.0749 61.6226 21.2379 60.5462 17.9565C60.4613 17.9904 60.3604 18.0236 60.2761 18.0574C57.8698 18.9664 55.2784 19.5221 52.586 19.6563V29.232H62.3807ZM52.586 7.84234V17.2666C54.9922 17.1491 57.2975 16.6439 59.4354 15.8364C59.5363 15.8026 59.6373 15.7694 59.7204 15.7355C59.4853 15.1466 59.2324 14.5909 58.9634 14.0524C57.2298 10.6695 55.0094 8.41466 52.586 7.84234ZM50.2124 17.2666V7.84234C47.7889 8.41466 45.5685 10.6695 43.8509 14.0524C43.582 14.5909 43.3291 15.1466 43.0773 15.7355C43.8343 16.0211 44.5919 16.2906 45.3827 16.4925C46.9304 16.93 48.5459 17.1829 50.2124 17.2666Z" fill="#BE0000"/>
<path d="M15.1583 34.1132L17.5479 41.6353L22.1253 38.3035L16.9922 32.531L15.1583 34.1132ZM18.0187 30.1076L23.8749 36.7047L29.7145 30.1076L29.7311 30.0909C30.1515 29.5863 30.909 29.5352 31.397 29.9734L34.5781 32.7168L42.2017 36.0487C43.7833 36.7385 45.0289 37.8327 45.8867 39.1786C46.7624 40.5584 47.2332 42.1738 47.2332 43.8908V48.2158C47.2332 48.8719 46.6954 49.4109 46.0387 49.4109C45.3987 49.4109 44.8608 48.8724 44.8608 48.2158V43.8908C44.8608 42.6119 44.5248 41.4335 43.902 40.458C43.2792 39.4986 42.3875 38.7244 41.2595 38.2192L34.663 35.3416L31.9367 43.924C31.701 44.6982 30.7588 44.9843 30.1188 44.513L25.0534 40.8273V49.107C25.0534 49.763 24.5322 50.3021 23.8755 50.3021C23.2195 50.3021 22.681 49.7636 22.681 49.107V40.8279L17.6322 44.5135C17.6322 44.5135 17.3122 44.6816 17.279 44.6816C16.6562 44.884 15.9996 44.5468 15.7977 43.9246L13.0715 35.3422L6.47435 38.2198C5.34692 38.725 4.45519 39.4986 3.84903 40.4586C3.20962 41.4346 2.873 42.6125 2.873 43.8914V63.4803C2.873 64.1363 2.35114 64.6754 1.69511 64.6754C1.03907 64.6754 0.5 64.1369 0.5 63.4803V43.8908C0.5 42.1738 0.971393 40.5589 1.8465 39.1786C2.70498 37.8321 3.96717 36.7385 5.53215 36.0487L13.1552 32.7168L16.3356 29.9734C16.8236 29.5358 17.5812 29.5869 18.0021 30.0909L18.0187 30.1076ZM9.67139 53.0289C9.67139 52.3729 10.2099 51.851 10.8493 51.851C11.5053 51.851 12.0444 52.3729 12.0444 53.0289V63.4797C12.0444 64.1357 11.5059 64.6748 10.8493 64.6748C10.2099 64.6748 9.67139 64.1363 9.67139 63.4797V53.0289ZM30.7416 32.531L25.6085 38.3035L30.1859 41.6353L32.5755 34.1132L30.7416 32.531Z" fill="#BE0000"/>
<path d="M49.9775 51.0937H23.6572C22.6473 51.0937 21.6713 51.9688 21.5033 52.9442L18.1709 71.8944C18.0029 72.8532 18.5752 73.6274 19.5845 73.6274H45.3158C46.4937 73.6274 47.6211 72.6181 47.8229 71.4734L51.1393 52.5405C51.1553 52.4562 51.1732 52.3553 51.1732 52.2544C51.1732 51.5473 50.6673 51.0937 49.9775 51.0937ZM36.0601 61.1064C36.7161 61.1064 37.2552 61.6448 37.2552 62.3015C37.2552 62.9581 36.7167 63.4794 36.0601 63.4794C35.4034 63.4794 34.8822 62.9575 34.8822 62.3015C34.8822 61.6454 35.4034 61.1064 36.0601 61.1064ZM23.6572 48.7207H49.9775C50.1965 48.7207 50.4144 48.7373 50.6335 48.7878C52.3671 49.0906 53.545 50.5214 53.545 52.2544C53.545 52.4901 53.5111 52.7091 53.4779 52.9442L50.1627 71.8944C49.7578 74.1492 47.6211 76.0004 45.3158 76.0004H19.5845C17.4305 76.0004 15.7812 74.3683 15.7812 72.2138C15.7812 71.9787 15.7979 71.7424 15.8317 71.4734L19.1635 52.5405C19.534 50.4371 21.5193 48.7207 23.6572 48.7207Z" fill="#BE0000"/>
<path d="M17.4976 67.7031C18.1536 67.7031 18.6927 68.225 18.6927 68.881C18.6927 68.9653 18.6761 69.049 18.6589 69.1333L18.1709 71.8934C18.1542 71.9943 18.1542 72.1119 18.1542 72.2128C18.1542 72.5833 18.2552 72.9027 18.457 73.139C18.6423 73.3741 18.9284 73.5255 19.2817 73.5932C19.366 73.6098 19.4669 73.6098 19.5678 73.627L19.5844 76H8.4598C7.68563 76 6.89482 75.7815 6.25541 75.3606C5.61601 74.9397 5.12799 74.3341 4.92613 73.5261L3.84917 69.1672C3.69778 68.5278 4.08487 67.8884 4.72428 67.737C4.80858 67.7031 4.90951 67.7031 5.00984 67.7031H17.4976ZM16.084 70.0761H6.50774L7.23145 72.9704C7.26529 73.139 7.38284 73.2738 7.55145 73.3747C7.80377 73.5427 8.12318 73.627 8.4598 73.627H16.033C15.8644 73.1901 15.7806 72.7187 15.7806 72.2134C15.7806 71.9783 15.7973 71.742 15.8311 71.4731L16.084 70.0761Z" fill="#BE0000"/>
<path d="M18.6918 27.9529L18.2881 31.0158C18.1871 31.6718 17.5982 32.1266 16.9582 32.0423C16.3022 31.9414 15.8474 31.3524 15.9317 30.6958L16.5545 26.1522L16.2517 25.8833C15.1243 24.89 14.2658 23.6949 13.6935 22.349C13.1045 21.0025 12.8184 19.5219 12.8184 17.9397V10.7536C12.8184 7.53933 13.9292 4.86295 15.8812 2.96135C17.8167 1.07637 20.5768 0 23.8747 0C27.1567 0 29.9168 1.07637 31.8522 2.96135C33.8043 4.86295 34.9151 7.53933 34.9151 10.7536V17.9397C34.9151 19.4542 34.6455 20.9521 34.04 22.349C33.4676 23.6955 32.6092 24.89 31.4817 25.8833L31.179 26.1522L31.8017 30.6958C31.886 31.3518 31.4313 31.9414 30.7919 32.0423C30.1358 32.1272 29.5469 31.6724 29.4626 31.0158L29.0422 27.9529C28.5038 28.3234 27.9653 28.6089 27.393 28.828C25.4237 29.6028 22.3103 29.6028 20.3417 28.828C19.7687 28.6095 19.2303 28.3234 18.6918 27.9529ZM15.2252 9.97941C16.4536 10.3837 19.0961 10.7542 20.4592 7.40456C20.7115 6.79839 21.4014 6.51283 22.0076 6.76515C22.3442 6.89992 22.5288 7.13561 22.6636 7.45502C22.6802 7.47164 24.8347 13.6484 32.5421 11.713V10.7542C32.5421 8.21317 31.7008 6.10912 30.2029 4.66169C28.705 3.19764 26.5173 2.3724 23.8753 2.3724C21.2162 2.3724 19.0284 3.19764 17.5305 4.66109C16.2012 5.95713 15.3766 7.77502 15.2252 9.97941ZM32.5421 14.1531C26.3659 15.4996 23.0673 12.4866 21.5356 10.2994C19.6001 12.9081 16.9243 12.8404 15.1908 12.4195V17.9397C15.1908 19.2019 15.4265 20.3797 15.864 21.4068C16.3016 22.4333 16.9576 23.3589 17.8327 24.1159L19.2635 25.3947C19.8863 25.9504 20.5257 26.3535 21.2156 26.623C22.5953 27.1787 25.1369 27.1787 26.5167 26.623C27.2065 26.3535 27.846 25.9498 28.4854 25.3947L29.9162 24.1159C30.7741 23.3589 31.3802 22.5337 31.8178 21.5072C32.3224 20.413 32.5415 19.1342 32.5415 17.9391V14.1531H32.5421Z" fill="#BE0000"/>
</svg>
