<svg width="77" height="76" viewBox="0 0 77 76" fill="none" xmlns="http://www.w3.org/2000/svg">
<path d="M17.6621 33.0965C17.6621 34.0718 18.0495 35.0071 18.7391 35.6967C19.4287 36.3863 20.364 36.7737 21.3393 36.7737H55.6592C56.6345 36.7737 57.5698 36.3863 58.2594 35.6967C58.949 35.0071 59.3364 34.0718 59.3364 33.0965V13.4851C59.3364 12.5099 58.949 11.5746 58.2594 10.885C57.5698 10.1954 56.6345 9.80797 55.6592 9.80797H51.4599C50.6623 6.985 48.9648 4.49964 46.6254 2.72968C44.286 0.959724 41.4327 0.00195313 38.4992 0.00195312C35.5657 0.00195313 32.7125 0.959724 30.3731 2.72968C28.0337 4.49964 26.3362 6.985 25.5385 9.80797H21.3393C20.364 9.80797 19.4287 10.1954 18.7391 10.885C18.0495 11.5746 17.6621 12.5099 17.6621 13.4851V33.0965ZM38.4992 2.45368C40.6811 2.45368 42.8139 3.10067 44.628 4.31281C46.4421 5.52496 47.856 7.24784 48.691 9.26357C49.5259 11.2793 49.7444 13.4973 49.3187 15.6372C48.8931 17.7771 47.8424 19.7427 46.2996 21.2855C44.7569 22.8283 42.7913 23.8789 40.6514 24.3046C38.5115 24.7302 36.2934 24.5118 34.2777 23.6768C32.262 22.8419 30.5391 21.4279 29.327 19.6138C28.1148 17.7997 27.4678 15.6669 27.4678 13.4851C27.4714 10.5605 28.6348 7.75667 30.7028 5.68865C32.7708 3.62063 35.5746 2.45725 38.4992 2.45368ZM20.1135 13.4851C20.1135 13.16 20.2427 12.8483 20.4725 12.6184C20.7024 12.3885 21.0142 12.2594 21.3393 12.2594H25.0789C25.0421 12.6639 25.0164 13.0708 25.0164 13.4851C25.0164 17.061 26.4369 20.4904 28.9654 23.0189C31.494 25.5475 34.9234 26.968 38.4992 26.968C42.0751 26.968 45.5045 25.5475 48.0331 23.0189C50.5616 20.4904 51.9821 17.061 51.9821 13.4851C51.9821 13.0708 51.9564 12.6639 51.9196 12.2594H55.6592C55.9843 12.2594 56.2961 12.3885 56.526 12.6184C56.7558 12.8483 56.885 13.16 56.885 13.4851V33.0965C56.885 33.4216 56.7558 33.7334 56.526 33.9632C56.2961 34.1931 55.9843 34.3222 55.6592 34.3222H21.3393C21.0142 34.3222 20.7024 34.1931 20.4725 33.9632C20.2427 33.7334 20.1135 33.4216 20.1135 33.0965V13.4851Z" fill="#BE0000"/>
<path d="M34.1344 15.6321L33.6073 19.4453C33.575 19.6729 33.6074 19.9051 33.7008 20.1152C33.7941 20.3253 33.9447 20.505 34.1353 20.6336C34.3259 20.7622 34.5489 20.8346 34.7787 20.8425C35.0085 20.8504 35.2358 20.7935 35.4349 20.6784L38.4991 18.9305L41.5696 20.6784C41.7684 20.7918 41.9951 20.8473 42.2239 20.8385C42.4527 20.8297 42.6744 20.757 42.864 20.6287C43.0536 20.5003 43.2035 20.3214 43.2966 20.1123C43.3897 19.9031 43.4224 19.6721 43.391 19.4453L42.8639 15.6321L45.4734 13.1463C45.6343 12.9918 45.7499 12.7962 45.8078 12.5808C45.8657 12.3653 45.8637 12.1381 45.8021 11.9238C45.7404 11.7094 45.6214 11.5159 45.4579 11.3641C45.2943 11.2124 45.0925 11.1081 44.8741 11.0626L41.2411 10.3174L39.6084 6.83514C39.5094 6.62457 39.3526 6.44652 39.1561 6.3218C38.9597 6.19709 38.7318 6.13086 38.4991 6.13086C38.2665 6.13086 38.0386 6.19709 37.8422 6.3218C37.6457 6.44652 37.4889 6.62457 37.3899 6.83514L35.7572 10.3137L32.1242 11.059C31.9058 11.1044 31.704 11.2087 31.5404 11.3604C31.3769 11.5122 31.2579 11.7057 31.1962 11.9201C31.1345 12.1345 31.1325 12.3616 31.1905 12.5771C31.2484 12.7925 31.364 12.9881 31.5248 13.1427L34.1344 15.6321ZM36.8518 12.5911C37.0376 12.5521 37.2119 12.4705 37.3608 12.3526C37.5097 12.2348 37.6291 12.084 37.7098 11.912L38.4991 10.2414L39.2836 11.912C39.3642 12.084 39.4837 12.2348 39.6326 12.3526C39.7815 12.4705 39.9558 12.5521 40.1416 12.5911L42.0795 12.9894L40.7177 14.2912C40.5771 14.4253 40.4705 14.591 40.4066 14.7745C40.3426 14.958 40.3232 15.154 40.35 15.3465L40.6221 17.3174L39.1071 16.4594C38.9222 16.3541 38.7131 16.2987 38.5004 16.2987C38.2876 16.2987 38.0785 16.3541 37.8936 16.4594L36.3787 17.3174L36.6508 15.3465C36.6775 15.154 36.6581 14.958 36.5942 14.7745C36.5302 14.591 36.4236 14.4253 36.283 14.2912L34.9139 12.9944L36.8518 12.5911Z" fill="#BE0000"/>
<path d="M51.9813 29.4199H25.0156V31.8713H51.9813V29.4199Z" fill="#BE0000"/>
<path d="M1.42969 9.77129C2.75802 10.1059 3.98831 10.7501 5.02002 11.6512C6.05173 12.5524 6.85556 13.6848 7.36582 14.9561L7.93946 16.3926C8.03022 16.6205 8.18726 16.8158 8.39026 16.9535C8.59326 17.0911 8.83288 17.1647 9.07815 17.1647C9.32341 17.1647 9.56303 17.0911 9.76603 16.9535C9.96903 16.8158 10.1261 16.6205 10.2168 16.3926L10.7978 14.9561C11.3084 13.6844 12.1128 12.5517 13.1452 11.6505C14.1776 10.7494 15.4086 10.1054 16.7376 9.77129C17.0027 9.70487 17.2379 9.5518 17.406 9.33639C17.5741 9.12098 17.6654 8.85558 17.6654 8.58235C17.6654 8.30912 17.5741 8.04373 17.406 7.82832C17.2379 7.61291 17.0027 7.45983 16.7376 7.39341C15.4086 7.0593 14.1776 6.41534 13.1452 5.51419C12.1128 4.61304 11.3084 3.48031 10.7978 2.20864L10.2205 0.772102C10.1297 0.544252 9.97271 0.348871 9.76971 0.211226C9.56671 0.0735801 9.32709 0 9.08182 0C8.83656 0 8.59693 0.0735801 8.39393 0.211226C8.19094 0.348871 8.0339 0.544252 7.94313 0.772102L7.36582 2.20864C6.85556 3.47989 6.05173 4.61235 5.02002 5.51347C3.98831 6.41459 2.75802 7.05878 1.42969 7.39341C1.16466 7.45983 0.929417 7.61291 0.761331 7.82832C0.593246 8.04373 0.501953 8.30912 0.501953 8.58235C0.501953 8.85558 0.593246 9.12098 0.761331 9.33639C0.929417 9.5518 1.16466 9.70487 1.42969 9.77129ZM9.08182 4.31564C10.0522 6.08671 11.4848 7.56132 13.2272 8.58235C11.4848 9.60338 10.0522 11.078 9.08182 12.8491C8.11147 11.078 6.6788 9.60338 4.93646 8.58235C6.6788 7.56132 8.11147 6.08671 9.08182 4.31564Z" fill="#BE0000"/>
<path d="M75.5677 7.39341C74.2394 7.05878 73.0091 6.41459 71.9774 5.51347C70.9457 4.61235 70.1418 3.47989 69.6316 2.20864L69.0579 0.772102C68.9672 0.544252 68.8101 0.348871 68.6071 0.211226C68.4041 0.0735801 68.1645 0 67.9193 0C67.674 0 67.4344 0.0735801 67.2314 0.211226C67.0284 0.348871 66.8713 0.544252 66.7806 0.772102L66.1996 2.20864C65.689 3.48031 64.8846 4.61304 63.8522 5.51419C62.8198 6.41534 61.5888 7.0593 60.2598 7.39341C59.9947 7.45983 59.7595 7.61291 59.5914 7.82832C59.4233 8.04373 59.332 8.30912 59.332 8.58235C59.332 8.85558 59.4233 9.12098 59.5914 9.33639C59.7595 9.5518 59.9947 9.70487 60.2598 9.77129C61.5888 10.1054 62.8198 10.7494 63.8522 11.6505C64.8846 12.5517 65.689 13.6844 66.1996 14.9561L66.7732 16.3926C66.864 16.6205 67.021 16.8158 67.224 16.9535C67.427 17.0911 67.6666 17.1647 67.9119 17.1647C68.1572 17.1647 68.3968 17.0911 68.5998 16.9535C68.8028 16.8158 68.9598 16.6205 69.0506 16.3926L69.6316 14.9561C70.1422 13.6844 70.9466 12.5517 71.979 11.6505C73.0113 10.7494 74.2424 10.1054 75.5714 9.77129C75.8364 9.70487 76.0717 9.5518 76.2397 9.33639C76.4078 9.12098 76.4991 8.85558 76.4991 8.58235C76.4991 8.30912 76.4078 8.04373 76.2397 7.82832C76.0717 7.61291 75.8364 7.45983 75.5714 7.39341H75.5677ZM67.9156 12.8491C66.9452 11.078 65.5126 9.60338 63.7702 8.58235C65.5126 7.56132 66.9452 6.08671 67.9156 4.31564C68.8859 6.08671 70.3186 7.56132 72.0609 8.58235C70.3186 9.60338 68.8859 11.078 67.9156 12.8491Z" fill="#BE0000"/>
<path d="M15.21 63.7404C14.8849 63.7404 14.5732 63.8696 14.3433 64.0994C14.1134 64.3293 13.9843 64.6411 13.9843 64.9661V74.7718C13.9843 75.0969 14.1134 75.4087 14.3433 75.6386C14.5732 75.8684 14.8849 75.9976 15.21 75.9976H34.8214C35.1465 75.9976 35.4583 75.8684 35.6881 75.6386C35.918 75.4087 36.0471 75.0969 36.0471 74.7718V64.9661C36.0471 64.6411 35.918 64.3293 35.6881 64.0994C35.4583 63.8696 35.1465 63.7404 34.8214 63.7404H33.5957V59.0116C33.6006 57.2403 33.254 55.4857 32.5761 53.8492C31.8982 52.2127 30.9025 50.727 29.6465 49.478L20.6203 40.4519C19.9038 39.7706 18.974 39.3578 17.9881 39.2832C17.0022 39.2086 16.0209 39.4768 15.21 40.0425V30.6461C15.2081 29.0213 14.5617 27.4637 13.4128 26.3147C12.2639 25.1658 10.7062 24.5195 9.08144 24.5176C8.1062 24.5176 7.1709 24.905 6.48131 25.5946C5.79171 26.2842 5.4043 27.2195 5.4043 28.1947V47.8061C5.40435 48.089 5.50222 48.3631 5.68131 48.582L16.4357 61.7266V63.7404H15.21ZM33.5957 73.5461H16.4357V66.1918H33.5957V73.5461ZM18.6101 60.5131L7.85572 47.3686V28.1947C7.85572 27.8696 7.98486 27.5579 8.21473 27.328C8.44459 27.0981 8.75636 26.969 9.08144 26.969C10.0567 26.969 10.992 27.3564 11.6816 28.046C12.3712 28.7356 12.7586 29.6709 12.7586 30.6461V42.3958L11.892 43.2624C11.6622 43.4923 11.5331 43.804 11.5331 44.129C11.5331 44.454 11.6622 44.7657 11.892 44.9956L19.2463 52.3499L20.9794 50.6167L14.4917 44.129L16.4357 42.185C16.7683 41.8744 17.2064 41.7016 17.6614 41.7016C18.1165 41.7016 18.5546 41.8744 18.8871 42.185L27.9133 51.2112C28.9409 52.2332 29.7555 53.4488 30.3101 54.7878C30.8647 56.1267 31.1483 57.5624 31.1443 59.0116V63.7404H18.8871V61.289C18.8871 61.0062 18.7892 60.732 18.6101 60.5131Z" fill="#BE0000"/>
<path d="M71.317 48.582C71.4961 48.3631 71.594 48.089 71.594 47.8061V28.1947C71.594 27.2195 71.2066 26.2842 70.517 25.5946C69.8274 24.905 68.8921 24.5176 67.9169 24.5176C66.2921 24.5195 64.7344 25.1658 63.5855 26.3147C62.4366 27.4637 61.7903 29.0213 61.7883 30.6461V40.0425C60.9774 39.4768 59.9961 39.2086 59.0102 39.2832C58.0244 39.3578 57.0945 39.7706 56.378 40.4519L47.3518 49.478C46.0959 50.727 45.1001 52.2127 44.4222 53.8492C43.7443 55.4857 43.3978 57.2403 43.4026 59.0116V63.7404H42.1769C41.8518 63.7404 41.54 63.8696 41.3102 64.0994C41.0803 64.3293 40.9512 64.6411 40.9512 64.9661V74.7718C40.9512 75.0969 41.0803 75.4087 41.3102 75.6386C41.54 75.8684 41.8518 75.9976 42.1769 75.9976H61.7883C62.1134 75.9976 62.4252 75.8684 62.655 75.6386C62.8849 75.4087 63.014 75.0969 63.014 74.7718V64.9661C63.014 64.6411 62.8849 64.3293 62.655 64.0994C62.4252 63.8696 62.1134 63.7404 61.7883 63.7404H60.5626V61.7266L71.317 48.582ZM60.5626 73.5461H43.4026V66.1918H60.5626V73.5461ZM45.854 63.7404V59.0116C45.8501 57.5624 46.1336 56.1267 46.6882 54.7878C47.2428 53.4488 48.0574 52.2332 49.085 51.2112L58.1112 42.185C58.4437 41.8744 58.8818 41.7016 59.3369 41.7016C59.7919 41.7016 60.23 41.8744 60.5626 42.185L62.5066 44.129L56.0189 50.6167L57.752 52.3499L65.1063 44.9956C65.3361 44.7657 65.4652 44.454 65.4652 44.129C65.4652 43.804 65.3361 43.4923 65.1063 43.2624L64.2397 42.3958V30.6461C64.2397 29.6709 64.6271 28.7356 65.3167 28.046C66.0063 27.3564 66.9416 26.969 67.9169 26.969C68.242 26.969 68.5537 27.0981 68.7836 27.328C69.0135 27.5579 69.1426 27.8696 69.1426 28.1947V47.3686L58.3882 60.5131C58.2091 60.732 58.1112 61.0062 58.1112 61.289V63.7404H45.854Z" fill="#BE0000"/>
</svg>
