<svg width="77" height="76" viewBox="0 0 77 76" fill="none" xmlns="http://www.w3.org/2000/svg">
<path d="M69.0743 59.094C70.5756 57.0297 71.3892 54.5455 71.3999 51.9931C71.4161 51.6575 71.2982 51.3292 71.0723 51.0805C70.8464 50.8318 70.5309 50.683 70.1953 50.6669C69.4992 50.6409 68.91 51.1761 68.8691 51.8715C68.8787 53.8944 68.2555 55.8696 67.087 57.5208C64.6157 60.6418 59.9266 60.8001 59.0108 60.8001C58.3112 60.8001 57.7441 61.3672 57.7441 62.0668C57.7441 62.7663 58.3112 63.3334 59.0108 63.3334C60.1305 63.3334 65.8773 63.1295 69.0743 59.094Z" fill="#BE0000"/>
<path d="M43.5685 43.067C43.5685 42.3674 43.0014 41.8003 42.3018 41.8003C41.6023 41.8003 41.0352 42.3674 41.0352 43.067C41.0352 45.8652 43.3036 48.1336 46.1018 48.1336V49.4003C46.1018 50.0998 46.6689 50.6669 47.3684 50.6669C48.068 50.6669 48.6351 50.0998 48.6351 49.4003V48.1336C51.4333 48.1336 53.7017 45.8652 53.7017 43.067C53.7017 40.2688 51.4333 38.0004 48.6351 38.0004V32.9338C50.0342 32.9338 51.1684 34.068 51.1684 35.4671C51.1684 36.1666 51.7355 36.7337 52.435 36.7337C53.1346 36.7337 53.7017 36.1666 53.7017 35.4671C53.7017 32.6689 51.4333 30.4005 48.6351 30.4005V29.1338C48.6351 28.4343 48.068 27.8672 47.3684 27.8672C46.6689 27.8672 46.1018 28.4343 46.1018 29.1338V30.4005C43.3036 30.4005 41.0352 32.6689 41.0352 35.4671C41.0352 38.2653 43.3036 40.5337 46.1018 40.5337V45.6003C44.7027 45.6003 43.5685 44.4661 43.5685 43.067ZM43.5685 35.4671C43.5685 34.068 44.7027 32.9338 46.1018 32.9338V38.0004C44.7027 38.0004 43.5685 36.8662 43.5685 35.4671ZM48.6351 40.5337C50.0342 40.5337 51.1684 41.6679 51.1684 43.067C51.1684 44.4661 50.0342 45.6003 48.6351 45.6003V40.5337Z" fill="#BE0000"/>
<path d="M75.4452 42.777C72.324 29.5139 65.3848 21.8291 60.3736 17.8151C66.6579 18.2889 68.6809 20.9032 68.7404 20.9817C69.1373 21.5482 69.9152 21.6917 70.488 21.3039C71.0608 20.9162 71.2167 20.1407 70.8381 19.5618C70.7469 19.425 68.9874 16.912 63.8711 15.7619C65.1793 14.6865 65.9532 13.0939 65.9903 11.4008C65.8209 8.59383 63.8667 6.21358 61.1463 5.50074C61.2578 4.58578 61.3145 3.66497 61.316 2.74324C61.3147 1.89408 60.8879 1.10208 60.1795 0.633874C59.471 0.165668 58.575 0.0835399 57.7933 0.41514C57.1537 0.704665 56.5597 1.0857 56.03 1.54626C55.4083 2.18506 54.5525 2.54199 53.6612 2.53425C52.7712 2.54051 51.9172 2.18373 51.2962 1.54626C49.0637 -0.51542 45.6216 -0.51542 43.3892 1.54626C42.7674 2.18645 41.9103 2.54358 41.0179 2.53425C40.128 2.54164 39.274 2.18465 38.6541 1.54626C38.1257 1.08668 37.5335 0.706112 36.8959 0.416406C36.1146 0.087029 35.2204 0.170278 34.5133 0.638207C33.8063 1.10613 33.3802 1.8967 33.3782 2.74451C33.3782 5.89594 34.0014 11.5173 37.9473 15.292C35.8735 16.5528 33.9368 18.0263 32.1684 19.6885V10.1342C32.1684 7.24619 28.0832 5.06755 22.6679 5.06755C17.2526 5.06755 13.1674 7.24619 13.1674 10.1342V22.8957C8.72492 23.339 5.56695 25.334 5.56695 27.8673V60.0845C2.50651 60.9066 0.5 62.5735 0.5 64.6001V70.9334C0.5 73.8214 4.58523 76 10.0005 76C14.8433 76 18.6143 74.2558 19.3579 71.8201C21.5445 72.9777 23.9952 73.5453 26.4681 73.4667C31.8834 73.4667 35.9686 71.2881 35.9686 68.4001V51.9336C35.9686 49.0457 31.8834 46.867 26.4681 46.867C25.8335 46.8666 25.1994 46.8983 24.568 46.962V27.8673C24.568 25.0933 20.7969 22.9805 15.7008 22.8171V13.6415C17.8559 14.7368 20.2516 15.2729 22.6679 15.2008C25.0842 15.2729 27.4799 14.7368 29.635 13.6415V22.2801C28.8002 23.2136 27.9616 24.2307 27.1344 25.358C26.7556 25.922 26.8893 26.6844 27.4374 27.086C27.9855 27.4875 28.7528 27.3851 29.1764 26.8539C29.99 25.7526 30.8619 24.6955 31.7884 23.6873C31.7985 23.6759 31.8074 23.6645 31.8175 23.6544C34.2357 20.9672 37.0753 18.6916 40.2249 16.9171C40.8458 17.2166 41.5028 17.435 42.1795 17.5669L38.9138 20.6144C38.4024 21.0922 38.3752 21.8941 38.853 22.4055C39.3308 22.9168 40.1328 22.9441 40.6442 22.4663L45.7111 17.7404H46.1152V21.5403C46.1152 22.2399 46.6823 22.807 47.3819 22.807C48.0815 22.807 48.6487 22.2399 48.6487 21.5403V17.7341H49.0528L54.1197 22.4599C54.4505 22.769 54.9211 22.8781 55.3542 22.7462C55.7873 22.6142 56.1171 22.2613 56.2194 21.8203C56.3217 21.3792 56.1809 20.9172 55.8501 20.6081L52.5629 17.5479C53.2355 17.4147 53.8882 17.1955 54.5048 16.8955C57.8528 18.7068 68.8582 25.8634 72.9802 43.3571C74.7726 50.9722 74.1266 56.7976 71.0611 60.6672C67.1392 65.6135 60.3343 65.8668 59.0106 65.8668H41.0356C40.336 65.8668 39.7688 66.4339 39.7688 67.1334C39.7688 67.833 40.336 68.4001 41.0356 68.4001H59.0106C61.164 68.4001 68.5174 67.9555 73.046 62.2404C76.6157 57.7324 77.4239 51.1838 75.4452 42.777ZM10.0005 62.0668C14.1896 62.0668 16.9676 63.5868 16.9676 64.6001C16.9676 65.6135 14.1896 67.1334 10.0005 67.1334C5.81143 67.1334 3.03347 65.6135 3.03347 64.6001C3.03347 63.5868 5.81143 62.0668 10.0005 62.0668ZM10.0005 73.4667C5.81143 73.4667 3.03347 71.9467 3.03347 70.9334V68.1075C5.18849 69.2028 7.58421 69.7389 10.0005 69.6667C12.4169 69.7389 14.8126 69.2028 16.9676 68.1075V70.9334C16.9676 71.9467 14.1896 73.4667 10.0005 73.4667ZM26.4681 70.9334C22.279 70.9334 19.5011 69.4134 19.5011 68.4001V55.441C21.6561 56.5363 24.0518 57.0724 26.4681 57.0002C28.8844 57.0724 31.2802 56.5363 33.4352 55.441V68.4001C33.4352 69.4134 30.6572 70.9334 26.4681 70.9334ZM33.4352 51.9336C33.4352 52.947 30.6572 54.4669 26.4681 54.4669C22.279 54.4669 19.5011 52.947 19.5011 51.9336C19.5011 50.9203 22.279 49.4003 26.4681 49.4003C30.6572 49.4003 33.4352 50.9203 33.4352 51.9336ZM16.9676 51.9336V61.0928C14.8126 59.9975 12.4169 59.4614 10.0005 59.5335C9.36596 59.5331 8.73178 59.5648 8.10042 59.6285V31.3746C10.2554 32.4699 12.6512 33.0061 15.0675 32.9339C17.4838 33.0061 19.8795 32.4699 22.0345 31.3746V47.418C18.9741 48.2401 16.9676 49.907 16.9676 51.9336ZM22.0345 27.8673C22.0345 28.8806 19.2566 30.4006 15.0675 30.4006C10.8784 30.4006 8.10042 28.8806 8.10042 27.8673C8.10042 26.8539 10.8784 25.334 15.0675 25.334C19.2566 25.334 22.0345 26.8539 22.0345 27.8673ZM22.6679 12.6675C18.4788 12.6675 15.7008 11.1475 15.7008 10.1342C15.7008 9.12083 18.4788 7.60085 22.6679 7.60085C26.857 7.60085 29.635 9.12083 29.635 10.1342C29.635 11.1475 26.857 12.6675 22.6679 12.6675ZM63.4568 11.4008C63.4568 13.4768 61.2084 15.1805 58.3899 15.2008C57.9184 15.1978 57.4487 15.1438 56.9889 15.0399C58.8274 13.0785 60.1053 10.6594 60.689 8.03531C62.2138 8.48455 63.3105 9.81807 63.4568 11.4008ZM37.0682 3.52223C38.1379 4.52458 39.5519 5.07778 41.0179 5.06755C42.4847 5.07856 43.8997 4.5253 44.9701 3.52223C45.5962 2.8901 46.4491 2.53446 47.3389 2.53446C48.2287 2.53446 49.0815 2.8901 49.7077 3.52223C50.778 4.52605 52.1937 5.07941 53.6612 5.06755C55.1285 5.07888 56.544 4.5256 57.6146 3.52223C57.9657 3.212 58.3563 2.94963 58.7762 2.74198C58.7762 5.09415 58.3392 10.9093 54.2578 14.0975C53.3396 14.7871 52.2265 15.168 51.0783 15.1856C52.1749 13.3022 53.0428 11.2947 53.6637 9.2057C53.785 8.76946 53.6643 8.30165 53.3471 7.9785C53.0299 7.65535 52.5645 7.52595 52.126 7.63904C51.6875 7.75213 51.3427 8.09053 51.2214 8.52677C50.5198 10.9078 49.4413 13.161 48.0267 15.2008H46.7245C45.3127 13.1592 44.234 10.9065 43.5285 8.52677C43.3407 7.85275 42.642 7.45862 41.9679 7.64645C41.2938 7.83428 40.8997 8.53294 41.0875 9.20696C41.709 11.2978 42.5778 13.307 43.6755 15.1919C42.5043 15.1859 41.3662 14.8026 40.4301 14.0988C36.3487 10.9119 35.9116 5.09668 35.9116 2.75211C36.3314 2.95322 36.7208 3.21247 37.0682 3.52223Z" fill="#BE0000"/>
<path d="M69.0743 59.0939C70.5756 57.0296 71.3892 54.5454 71.3999 51.993C71.4161 51.6574 71.2982 51.3291 71.0723 51.0804C70.8464 50.8317 70.5309 50.6829 70.1953 50.6668C69.4997 50.6422 68.9113 51.1767 68.8691 51.8714C68.8787 53.8943 68.2555 55.8695 67.087 57.5207C64.6157 60.6417 59.9266 60.8 59.0108 60.8C58.3112 60.8 57.7441 61.3671 57.7441 62.0667C57.7441 62.7662 58.3112 63.3333 59.0108 63.3333C60.1305 63.3333 65.8773 63.1294 69.0743 59.0939Z" fill="#BE0000"/>
</svg>
